<svg width="24" height="24" viewBox="0 0 24 24" fill="none" xmlns="http://www.w3.org/2000/svg">
<mask id="mask0_817_355" style="mask-type:alpha" maskUnits="userSpaceOnUse" x="0" y="0" width="24" height="24">
<rect width="24" height="24" fill="#D9D9D9"/>
</mask>
<g mask="url(#mask0_817_355)">
<path d="M5.0752 20.75C4.5752 20.75 4.1502 20.575 3.8002 20.225C3.4502 19.875 3.2752 19.45 3.2752 18.95V10.95C2.85853 10.6167 2.5502 10.1873 2.3502 9.662C2.1502 9.13733 2.1502 8.56667 2.3502 7.95L3.3502 4.65C3.48353 4.23333 3.71286 3.89567 4.0382 3.637C4.36286 3.379 4.74186 3.25 5.1752 3.25H18.8252C19.2752 3.25 19.6585 3.375 19.9752 3.625C20.2919 3.875 20.5169 4.20833 20.6502 4.625L21.6752 7.95C21.8752 8.56667 21.8752 9.13733 21.6752 9.662C21.4752 10.1873 21.1752 10.625 20.7752 10.975V18.95C20.7752 19.45 20.6002 19.875 20.2502 20.225C19.9002 20.575 19.4669 20.75 18.9502 20.75H5.0752ZM14.2252 10.25C14.7585 10.25 15.1629 10.0833 15.4382 9.75C15.7129 9.41667 15.8252 9.05833 15.7752 8.675L15.1752 4.75H12.7752V8.7C12.7752 9.11667 12.9169 9.479 13.2002 9.787C13.4835 10.0957 13.8252 10.25 14.2252 10.25ZM9.7252 10.25C10.1752 10.25 10.5462 10.0957 10.8382 9.787C11.1295 9.479 11.2752 9.11667 11.2752 8.7V4.75H8.8502L8.2502 8.7C8.2002 9.06667 8.31286 9.41667 8.5882 9.75C8.86286 10.0833 9.24186 10.25 9.7252 10.25ZM5.2752 10.25C5.64186 10.25 5.95853 10.121 6.2252 9.863C6.49186 9.60433 6.65853 9.28333 6.7252 8.9L7.3002 4.75H5.1752C5.0752 4.75 4.99186 4.775 4.9252 4.825C4.85853 4.875 4.80853 4.95 4.7752 5.05L3.8252 8.3C3.69186 8.71667 3.7502 9.14567 4.0002 9.587C4.2502 10.029 4.6752 10.25 5.2752 10.25ZM18.7752 10.25C19.3085 10.25 19.7212 10.0377 20.0132 9.613C20.3045 9.18767 20.3752 8.75 20.2252 8.3L19.2002 5.025C19.1669 4.925 19.1209 4.854 19.0622 4.812C19.0042 4.77067 18.9169 4.75 18.8002 4.75H16.7252L17.3252 8.9C17.3752 9.28333 17.5335 9.60433 17.8002 9.863C18.0669 10.121 18.3919 10.25 18.7752 10.25Z" fill="#707070"/>
</g>
</svg>
