<svg width="25" height="24" viewBox="0 0 25 24" fill="none" xmlns="http://www.w3.org/2000/svg">
<mask id="mask0_398_10807" style="mask-type:alpha" maskUnits="userSpaceOnUse" x="0" y="0" width="25" height="24">
<rect x="0.5" width="24" height="24" fill="#D9D9D9"/>
</mask>
<g mask="url(#mask0_398_10807)">
<path d="M14.6634 20.6365L11.8942 17.8672C11.7558 17.7288 11.6865 17.5615 11.6865 17.3653C11.6865 17.1692 11.7641 16.9935 11.9192 16.8384C12.0641 16.6936 12.2397 16.6186 12.4461 16.6134C12.6525 16.6083 12.8282 16.6833 12.973 16.8384L15.2961 19.1308L20.4481 13.9788C20.5865 13.8404 20.7564 13.7711 20.9577 13.7711C21.1589 13.7711 21.3371 13.8487 21.4923 14.0038C21.6474 14.1589 21.7224 14.3397 21.7173 14.5461C21.7121 14.7525 21.632 14.9333 21.4769 15.0884L15.9288 20.6365C15.7583 20.807 15.5474 20.8922 15.2961 20.8922C15.0448 20.8922 14.8339 20.807 14.6634 20.6365ZM4.8077 19.5C4.30898 19.5 3.88303 19.3233 3.52983 18.9701C3.17661 18.6169 3 18.191 3 17.6922V6.3077C3 5.80898 3.17661 5.38302 3.52983 5.02982C3.88303 4.67661 4.30898 4.5 4.8077 4.5H20.1923C20.691 4.5 21.1169 4.67661 21.4701 5.02982C21.8233 5.38302 22 5.80898 22 6.3077V11.5961H20.0058L15.2961 16.3058L14.4134 15.4134C13.875 14.8814 13.2243 14.6154 12.4615 14.6154C11.6987 14.6154 11.0513 14.8814 10.5192 15.4134C9.97433 15.9583 9.69933 16.6064 9.6942 17.3577C9.68908 18.1089 9.95575 18.7538 10.4942 19.2922L10.7019 19.5H4.8077ZM4.49998 11.5961H20.5V8.40385H4.49998V11.5961Z" fill="#707070"/>
</g>
</svg>
