<svg width="33" height="32" viewBox="0 0 33 32" fill="none" xmlns="http://www.w3.org/2000/svg">
<mask id="mask0_398_10819" style="mask-type:alpha" maskUnits="userSpaceOnUse" x="0" y="0" width="33" height="32">
<rect x="0.5" width="32" height="32" fill="#D9D9D9"/>
</mask>
<g mask="url(#mask0_398_10819)">
<mask id="mask1_398_10819" style="mask-type:alpha" maskUnits="userSpaceOnUse" x="4" y="4" width="25" height="24">
<rect x="4.5" y="4" width="24" height="24" fill="#D9D9D9"/>
</mask>
<g mask="url(#mask1_398_10819)">
<path d="M13.5 15.75H19.5C19.7125 15.75 19.8906 15.6781 20.0344 15.5343C20.1781 15.3904 20.25 15.2122 20.25 14.9997C20.25 14.7871 20.1781 14.609 20.0344 14.4654C19.8906 14.3218 19.7125 14.25 19.5 14.25H13.5C13.2875 14.25 13.1094 14.3219 12.9656 14.4657C12.8219 14.6095 12.75 14.7877 12.75 15.0003C12.75 15.2129 12.8219 15.391 12.9656 15.5346C13.1094 15.6782 13.2875 15.75 13.5 15.75ZM13.5 11.7499H19.5C19.7125 11.7499 19.8906 11.6781 20.0344 11.5343C20.1781 11.3904 20.25 11.2122 20.25 10.9997C20.25 10.787 20.1781 10.609 20.0344 10.4654C19.8906 10.3218 19.7125 10.25 19.5 10.25H13.5C13.2875 10.25 13.1094 10.3219 12.9656 10.4657C12.8219 10.6095 12.75 10.7877 12.75 11.0003C12.75 11.2129 12.8219 11.391 12.9656 11.5346C13.1094 11.6782 13.2875 11.7499 13.5 11.7499ZM23.9307 24.2057L20.194 19.3556C19.9326 19.0032 19.6128 18.7308 19.2346 18.5385C18.8564 18.3462 18.4448 18.25 18 18.25H9V8.3077C9 7.80257 9.175 7.375 9.525 7.025C9.875 6.675 10.3026 6.5 10.8077 6.5H22.1922C22.6974 6.5 23.125 6.675 23.475 7.025C23.825 7.375 24 7.80257 24 8.3077V23.6922C24 23.7847 23.9942 23.8726 23.9826 23.9559C23.9711 24.0391 23.9538 24.1224 23.9307 24.2057ZM10.8077 25.5C10.3026 25.5 9.875 25.325 9.525 24.975C9.175 24.625 9 24.1974 9 23.6922V19.75H18C18.2055 19.75 18.3956 19.7959 18.5703 19.8879C18.745 19.9799 18.894 20.1076 19.0173 20.2711L22.8807 25.3288C22.7782 25.3878 22.6682 25.431 22.5509 25.4586C22.4336 25.4862 22.314 25.5 22.1922 25.5H10.8077Z" fill="#707070"/>
</g>
</g>
</svg>
