<svg width="33" height="32" viewBox="0 0 33 32" fill="none" xmlns="http://www.w3.org/2000/svg">
<mask id="mask0_398_10778" style="mask-type:alpha" maskUnits="userSpaceOnUse" x="4" y="4" width="25" height="24">
<rect x="4.5" y="4" width="24" height="24" fill="#D9D9D9"/>
</mask>
<g mask="url(#mask0_398_10778)">
<path d="M7.2017 23.3077C6.94562 23.3077 6.73095 23.2211 6.5577 23.0478C6.38447 22.8746 6.29785 22.6599 6.29785 22.4038V21.0846C6.29785 20.5692 6.43087 20.1093 6.6969 19.7049C6.96292 19.3004 7.31818 18.9857 7.7627 18.7608C8.71305 18.2959 9.66867 17.9376 10.6296 17.6856C11.5905 17.4337 12.6465 17.3078 13.7978 17.3078C14.9491 17.3078 16.0052 17.4337 16.9661 17.6856C17.927 17.9376 18.8826 18.2959 19.833 18.7608C20.2775 18.9857 20.6327 19.3004 20.8988 19.7049C21.1648 20.1093 21.2978 20.5692 21.2978 21.0846V22.4038C21.2978 22.6599 21.2112 22.8746 21.0379 23.0478C20.8647 23.2211 20.65 23.3077 20.394 23.3077H7.2017ZM22.9093 23.3077C23.032 23.2031 23.1274 23.0723 23.1956 22.9153C23.2637 22.7584 23.2978 22.5828 23.2978 22.3885V20.9616C23.2978 20.3052 23.1371 19.6796 22.8156 19.0848C22.4942 18.4901 22.0382 17.9798 21.4478 17.5539C22.1183 17.6539 22.7549 17.8087 23.3574 18.0183C23.96 18.2279 24.5349 18.4757 25.0824 18.7616C25.599 19.0372 25.9981 19.3621 26.2795 19.7362C26.5609 20.1103 26.7016 20.5188 26.7016 20.9616V22.4038C26.7016 22.6599 26.615 22.8746 26.4417 23.0478C26.2685 23.2211 26.0538 23.3077 25.7978 23.3077H22.9093ZM13.7978 15.6923C12.8353 15.6923 12.0114 15.3496 11.326 14.6642C10.6406 13.9788 10.2979 13.1548 10.2979 12.1924C10.2979 11.2299 10.6406 10.4059 11.326 9.72051C12.0114 9.03509 12.8353 8.69238 13.7978 8.69238C14.7603 8.69238 15.5843 9.03509 16.2697 9.72051C16.9551 10.4059 17.2978 11.2299 17.2978 12.1924C17.2978 13.1548 16.9551 13.9788 16.2697 14.6642C15.5843 15.3496 14.7603 15.6923 13.7978 15.6923ZM22.4324 12.1924C22.4324 13.1548 22.0896 13.9788 21.4042 14.6642C20.7188 15.3496 19.8949 15.6923 18.9324 15.6923C18.8196 15.6923 18.676 15.6795 18.5016 15.6539C18.3273 15.6282 18.1837 15.6 18.0709 15.5693C18.4652 15.0951 18.7683 14.5692 18.9801 13.9913C19.1919 13.4135 19.2978 12.8134 19.2978 12.1912C19.2978 11.5689 19.1898 10.9712 18.9738 10.3981C18.7577 9.82507 18.4568 9.29751 18.0709 8.81546C18.2145 8.76417 18.358 8.73084 18.5016 8.71546C18.6452 8.70007 18.7888 8.69238 18.9324 8.69238C19.8949 8.69238 20.7188 9.03509 21.4042 9.72051C22.0896 10.4059 22.4324 11.2299 22.4324 12.1924Z" fill="#707070"/>
</g>
</svg>
