<svg width="56" height="56" viewBox="0 0 56 56" fill="none" xmlns="http://www.w3.org/2000/svg">
<rect x="4" y="4" width="48" height="48" rx="24" fill="#FFD580"/>
<mask id="mask0_2655_17811" style="mask-type:alpha" maskUnits="userSpaceOnUse" x="15" y="16" width="25" height="25">
<rect x="15.7148" y="16.3574" width="24" height="24" fill="#D9D9D9"/>
</mask>
<g mask="url(#mask0_2655_17811)">
<path d="M21.7148 35.8574C20.7482 35.8574 19.9232 35.5158 19.2398 34.8324C18.5565 34.1491 18.2148 33.3241 18.2148 32.3574V24.3574C18.2148 23.3908 18.5565 22.5658 19.2398 21.8824C19.9232 21.1991 20.7482 20.8574 21.7148 20.8574H33.7148C34.6815 20.8574 35.5065 21.1991 36.1898 21.8824C36.8732 22.5658 37.2148 23.3908 37.2148 24.3574V32.3574C37.2148 33.3241 36.8732 34.1491 36.1898 34.8324C35.5065 35.5158 34.6815 35.8574 33.7148 35.8574H21.7148ZM21.7148 24.6074H33.7148C34.0982 24.6074 34.4565 24.6614 34.7898 24.7694C35.1232 24.8781 35.4315 25.0408 35.7148 25.2574V24.3574C35.7148 23.8074 35.5192 23.3368 35.1278 22.9454C34.7358 22.5534 34.2648 22.3574 33.7148 22.3574H21.7148C21.1648 22.3574 20.6942 22.5534 20.3028 22.9454C19.9108 23.3368 19.7148 23.8074 19.7148 24.3574V25.2574C19.9982 25.0408 20.3065 24.8781 20.6398 24.7694C20.9732 24.6614 21.3315 24.6074 21.7148 24.6074ZM19.8148 27.6074L31.0398 30.3324C31.1732 30.3658 31.3108 30.3658 31.4528 30.3324C31.5942 30.2991 31.7232 30.2408 31.8398 30.1574L35.4398 27.1324C35.2732 26.8158 35.0358 26.5658 34.7278 26.3824C34.4192 26.1991 34.0815 26.1074 33.7148 26.1074H21.7148C21.2482 26.1074 20.8398 26.2448 20.4898 26.5194C20.1398 26.7948 19.9148 27.1574 19.8148 27.6074Z" fill="#1C1B1F"/>
</g>
<rect x="4" y="4" width="48" height="48" rx="24" stroke="#FFBD2E" stroke-opacity="0.2" stroke-width="8"/>
</svg>
