<svg width="72" height="72" viewBox="0 0 72 72" fill="none" xmlns="http://www.w3.org/2000/svg">
<g clip-path="url(#clip0_2556_16044)">
<path d="M57.621 13.5C58.1837 14.0625 58.4998 14.8254 58.5 15.621V67.5C58.5 68.2956 58.1839 69.0587 57.6213 69.6213C57.0587 70.1839 56.2957 70.5 55.5 70.5H4.5C3.70435 70.5 2.94129 70.1839 2.37868 69.6213C1.81607 69.0587 1.5 68.2956 1.5 67.5V4.5C1.5 3.70435 1.81607 2.94129 2.37868 2.37868C2.94129 1.81607 3.70435 1.5 4.5 1.5H44.379C45.1746 1.50017 45.9375 1.81635 46.5 2.379L57.621 13.5Z" fill="#E4F2D1"/>
<path d="M31.5 70.5H4.5C3.70435 70.5 2.94129 70.1839 2.37868 69.6213C1.81607 69.0587 1.5 68.2956 1.5 67.5V4.5C1.5 3.70435 1.81607 2.94129 2.37868 2.37868C2.94129 1.81607 3.70435 1.5 4.5 1.5H44.379C45.1746 1.50017 45.9375 1.81635 46.5 2.379L57.621 13.5C58.1837 14.0625 58.4998 14.8254 58.5 15.621V25.5" stroke="#00303E" stroke-width="2" stroke-linecap="round" stroke-linejoin="round"/>
<path d="M52.5 70.5C56.0601 70.5 59.5402 69.4443 62.5003 67.4665C65.4604 65.4886 67.7675 62.6774 69.1298 59.3883C70.4922 56.0992 70.8487 52.48 70.1541 48.9884C69.4596 45.4967 67.7453 42.2894 65.2279 39.7721C62.7106 37.2547 59.5033 35.5404 56.0116 34.8459C52.52 34.1513 48.9008 34.5078 45.6117 35.8702C42.3226 37.2326 39.5114 39.5397 37.5335 42.4997C35.5557 45.4598 34.5 48.9399 34.5 52.5C34.5 57.2739 36.3964 61.8523 39.7721 65.2279C43.1477 68.6036 47.7261 70.5 52.5 70.5Z" fill="#E4F2D1"/>
<path d="M52.5012 34.5C48.8407 34.5045 45.2686 35.625 42.2613 37.7119C39.254 39.7988 36.9544 42.753 35.6693 46.1805C34.3841 49.6079 34.1745 53.3458 35.0684 56.8955C35.9622 60.4451 37.9171 63.6379 40.6722 66.048L66.0462 40.674C64.3623 38.7349 62.2815 37.1802 59.9447 36.115C57.6078 35.0499 55.0694 34.4991 52.5012 34.5Z" fill="#E4F2D1"/>
<path d="M52.5 70.5C56.0601 70.5 59.5402 69.4443 62.5003 67.4665C65.4603 65.4886 67.7675 62.6774 69.1298 59.3883C70.4922 56.0992 70.8487 52.48 70.1541 48.9884C69.4596 45.4967 67.7453 42.2894 65.2279 39.7721C62.7106 37.2547 59.5033 35.5404 56.0116 34.8459C52.52 34.1513 48.9008 34.5078 45.6117 35.8702C42.3226 37.2326 39.5114 39.5397 37.5335 42.4997C35.5557 45.4598 34.5 48.9399 34.5 52.5C34.5 57.2739 36.3964 61.8523 39.7721 65.2279C43.1477 68.6036 47.7261 70.5 52.5 70.5Z" stroke="#00303E" stroke-width="2" stroke-linecap="round" stroke-linejoin="round"/>
<path d="M60.5236 47.2793L51.8236 58.9013C51.6301 59.159 51.3835 59.372 51.1005 59.5262C50.8175 59.6803 50.5048 59.7718 50.1833 59.7945C49.8619 59.8173 49.5394 59.7708 49.2375 59.6581C48.9356 59.5453 48.6615 59.3691 48.4336 59.1413L43.9336 54.6413" stroke="#00303E" stroke-width="2" stroke-linecap="round" stroke-linejoin="round"/>
</g>
<defs>
<clipPath id="clip0_2556_16044">
<rect width="72" height="72" fill="white"/>
</clipPath>
</defs>
</svg>
