<svg width="41" height="28" viewBox="0 0 41 28" fill="none" xmlns="http://www.w3.org/2000/svg">
<path d="M9.5 28C7 28 4.87467 27.1333 3.124 25.4C1.37467 23.6667 0.5 21.55 0.5 19.05C0.5 16.6833 1.31667 14.6253 2.95 12.876C4.58333 11.1253 6.5 10.1833 8.7 10.05C9.13333 7.15 10.4667 4.75 12.7 2.85C14.9333 0.950001 17.5333 0 20.5 0C23.8333 0 26.6667 1.16667 29 3.5C31.3333 5.83333 32.5 8.66667 32.5 12V14H33.75C35.65 14.0667 37.25 14.7747 38.55 16.124C39.85 17.4747 40.5 19.1 40.5 21C40.5 22.9667 39.8333 24.6253 38.5 25.976C37.1667 27.3253 35.5333 28 33.6 28H22.75C21.8167 28 21.042 27.692 20.426 27.076C19.8087 26.4587 19.5 25.6833 19.5 24.75V13.15L15.3 17.35L13.9 15.95L20.5 9.35L27.1 15.95L25.7 17.35L21.5 13.15V24.75C21.5 25.0833 21.6253 25.3747 21.876 25.624C22.1253 25.8747 22.4167 26 22.75 26H33.5C34.9 26 36.0833 25.5167 37.05 24.55C38.0167 23.5833 38.5 22.4 38.5 21C38.5 19.6 38.0167 18.4167 37.05 17.45C36.0833 16.4833 34.9 16 33.5 16H30.5V12C30.5 9.23333 29.5253 6.87467 27.576 4.924C25.6253 2.97467 23.2667 2 20.5 2C17.7333 2 15.3753 2.97467 13.426 4.924C11.4753 6.87467 10.5 9.23333 10.5 12H9.4C7.56667 12 5.958 12.6833 4.574 14.05C3.19133 15.4167 2.5 17.0667 2.5 19C2.5 20.9333 3.18333 22.5833 4.55 23.95C5.91667 25.3167 7.56667 26 9.5 26H14.5V28H9.5Z" fill="#1C1B1F"/>
</svg>
