<svg width="32" height="32" viewBox="0 0 32 32" fill="none" xmlns="http://www.w3.org/2000/svg">
<circle cx="16" cy="16" r="16" fill="#101010"/>
<mask id="mask0_353_11870" style="mask-type:alpha" maskUnits="userSpaceOnUse" x="7" y="7" width="18" height="18">
<rect x="7" y="7" width="18" height="18" fill="#D9D9D9"/>
</mask>
<g mask="url(#mask0_353_11870)">
<path d="M18.8668 22.9076L12.623 16.6826C12.5605 16.6201 12.5138 16.5481 12.4828 16.4666C12.4513 16.3856 12.4355 16.3014 12.4355 16.2139C12.4355 16.1264 12.4513 16.0419 12.4828 15.9604C12.5138 15.8794 12.5605 15.8076 12.623 15.7451L18.8668 9.50137C19.0168 9.35137 19.1918 9.27637 19.3918 9.27637C19.5918 9.27637 19.773 9.35762 19.9355 9.52012C20.0855 9.65762 20.1605 9.82937 20.1605 10.0354C20.1605 10.2419 20.0855 10.4201 19.9355 10.5701L14.273 16.2139L19.9355 21.8764C20.073 22.0139 20.1418 22.1826 20.1418 22.3826C20.1418 22.5826 20.0668 22.7576 19.9168 22.9076C19.7668 23.0576 19.5918 23.1326 19.3918 23.1326C19.1918 23.1326 19.0168 23.0576 18.8668 22.9076Z" fill="white"/>
</g>
</svg>
