<svg width="73" height="72" viewBox="0 0 73 72" fill="none" xmlns="http://www.w3.org/2000/svg">
<path d="M46.9995 39.8999C50.6479 39.9022 54.2152 38.8227 57.2501 36.7976C60.285 34.7726 62.6513 31.8932 64.0497 28.5233C65.4481 25.1535 65.8158 21.4446 65.1063 17.8658C64.3969 14.287 62.6421 10.9989 60.0639 8.41736C57.4858 5.83582 54.2 4.07678 50.6221 3.36267C47.0442 2.64856 43.3348 3.01146 39.9632 4.40547C36.5915 5.79949 33.709 8.16201 31.68 11.1943C29.651 14.2266 28.5668 17.7924 28.5645 21.4409C28.5629 23.8634 29.0385 26.2624 29.9641 28.5011C30.8897 30.7398 32.2471 32.7743 33.959 34.4884C35.6708 36.2025 37.7035 37.5626 39.941 38.4911C42.1785 39.4196 44.577 39.8983 46.9995 39.8999Z" fill="#80B539"/>
<path d="M46.9993 3.00001C43.374 2.99735 39.8284 4.06365 36.8059 6.06555C33.7835 8.06745 31.4184 10.9161 30.0064 14.2551C28.5945 17.5942 28.1984 21.2754 28.8677 24.8384C29.537 28.4014 31.2419 31.6879 33.7693 34.287L59.8393 8.21701C56.4047 4.86815 51.7963 2.99573 46.9993 3.00001Z" fill="#80B539" fill-opacity="0.43"/>
<path d="M62 51L48.737 55.41H48.704C48.9756 54.9087 49.0998 54.3408 49.0622 53.772C49.0247 53.2031 48.8269 52.6565 48.4918 52.1952C48.1567 51.734 47.698 51.377 47.1685 51.1655C46.6391 50.954 46.0607 50.8966 45.5 51H36.5C32.9444 47.3306 28.1063 45.1804 23 45H14L2 51V69L14 61.5C46.184 72.231 34.313 72.339 71 54C69.988 52.638 68.582 51.6198 66.9722 51.0833C65.3625 50.5467 63.6268 50.5176 62 51Z" fill="#80B539" fill-opacity="0.43"/>
<path d="M46.9995 39.8999C50.6479 39.9022 54.2152 38.8227 57.2501 36.7976C60.285 34.7726 62.6513 31.8932 64.0497 28.5233C65.4481 25.1535 65.8158 21.4446 65.1063 17.8658C64.3969 14.287 62.6421 10.9989 60.0639 8.41736C57.4858 5.83582 54.2 4.07678 50.6221 3.36267C47.0442 2.64856 43.3348 3.01146 39.9632 4.40547C36.5915 5.79949 33.709 8.16201 31.68 11.1943C29.651 14.2266 28.5668 17.7924 28.5645 21.4409C28.5629 23.8634 29.0385 26.2624 29.9641 28.5011C30.8897 30.7398 32.2471 32.7743 33.959 34.4884C35.6708 36.2025 37.7035 37.5626 39.941 38.4911C42.1785 39.4196 44.577 39.8983 46.9995 39.8999V39.8999Z" stroke="#00303E" stroke-width="2" stroke-linecap="round" stroke-linejoin="round"/>
<path d="M47 12V9" stroke="#00303E" stroke-width="2" stroke-linecap="round" stroke-linejoin="round"/>
<path d="M51.5008 12H45.4138C44.4791 12.0007 43.5738 12.3265 42.853 12.9217C42.1323 13.5169 41.6412 14.3443 41.4638 15.262C41.2864 16.1797 41.4339 17.1306 41.8809 17.9515C42.3279 18.7723 43.0467 19.4121 43.9138 19.761L50.1058 22.239C50.973 22.5879 51.6917 23.2277 52.1387 24.0485C52.5857 24.8694 52.7332 25.8203 52.5559 26.738C52.3785 27.6557 51.8873 28.4831 51.1666 29.0783C50.4459 29.6735 49.5405 29.9993 48.6058 30H42.5008" stroke="#00303E" stroke-width="2" stroke-linecap="round" stroke-linejoin="round"/>
<path d="M47 33V30" stroke="#00303E" stroke-width="2" stroke-linecap="round" stroke-linejoin="round"/>
<path d="M48.737 55.4098L62 50.9998C63.6268 50.5175 65.3625 50.5465 66.9722 51.0831C68.582 51.6197 69.988 52.6379 71 53.9998C34.313 72.3388 46.184 72.2308 14 61.4998L2 68.9998" stroke="#00303E" stroke-width="2" stroke-linecap="round" stroke-linejoin="round"/>
<path d="M29 57H45.5C45.9389 57.0788 46.3897 57.0604 46.8207 56.946C47.2516 56.8316 47.6523 56.6241 47.9943 56.338C48.3363 56.0519 48.6114 55.6943 48.8002 55.2903C48.989 54.8864 49.0868 54.4459 49.0868 54C49.0868 53.5541 48.989 53.1136 48.8002 52.7097C48.6114 52.3057 48.3363 51.9481 47.9943 51.662C47.6523 51.3759 47.2516 51.1684 46.8207 51.054C46.3897 50.9396 45.9389 50.9212 45.5 51H36.5C32.9444 47.3306 28.1063 45.1804 23 45H14L2 51" stroke="#00303E" stroke-width="2" stroke-linecap="round" stroke-linejoin="round"/>
</svg>
