<svg width="48" height="48" viewBox="0 0 48 48" fill="none" xmlns="http://www.w3.org/2000/svg">
<rect width="48" height="48" rx="24" fill="#FFF2D8"/>
<mask id="mask0_2622_14848" style="mask-type:alpha" maskUnits="userSpaceOnUse" x="12" y="12" width="24" height="24">
<rect x="12" y="12" width="24" height="24" fill="#D9D9D9"/>
</mask>
<g mask="url(#mask0_2622_14848)">
<path d="M17.2495 32.2345C16.9995 32.2345 16.7789 32.1595 16.5875 32.0097C16.3955 31.8598 16.2662 31.66 16.1995 31.4103L13.5745 22.0694C13.4912 21.8696 13.5205 21.6821 13.6625 21.5069C13.8039 21.3324 13.9995 21.2452 14.2495 21.2452H19.2495L23.3745 15.0762C23.4412 14.9763 23.5289 14.8931 23.6375 14.8265C23.7455 14.7599 23.8662 14.7266 23.9995 14.7266C24.1162 14.7266 24.2329 14.7599 24.3495 14.8265C24.4662 14.8931 24.5495 14.9763 24.5995 15.0762L28.7245 21.2452H33.7495C33.9995 21.2452 34.1952 21.3324 34.3365 21.5069C34.4785 21.6821 34.5079 21.8696 34.4245 22.0694L31.7995 31.4103C31.7162 31.66 31.5705 31.8598 31.3625 32.0097C31.1539 32.1595 30.9245 32.2345 30.6745 32.2345H17.2495ZM17.4995 30.7359H30.4995L32.6995 22.7437H15.2995L17.4995 30.7359ZM23.9995 28.2384C24.4162 28.2384 24.7702 28.0925 25.0615 27.8008C25.3535 27.5097 25.4995 27.1561 25.4995 26.7398C25.4995 26.3236 25.3535 25.9699 25.0615 25.6789C24.7702 25.3872 24.4162 25.2413 23.9995 25.2413C23.5829 25.2413 23.2289 25.3872 22.9375 25.6789C22.6455 25.9699 22.4995 26.3236 22.4995 26.7398C22.4995 27.1561 22.6455 27.5097 22.9375 27.8008C23.2289 28.0925 23.5829 28.2384 23.9995 28.2384ZM21.0745 21.2452H26.9245L23.9745 16.8495L21.0745 21.2452Z" fill="#101010"/>
</g>
</svg>
