<svg width="48" height="48" viewBox="0 0 48 48" fill="none" xmlns="http://www.w3.org/2000/svg">
<rect width="48" height="48" rx="24" fill="#FFF2D8"/>
<mask id="mask0_2601_15338" style="mask-type:alpha" maskUnits="userSpaceOnUse" x="12" y="12" width="24" height="24">
<rect x="12" y="12" width="24" height="24" fill="#D9D9D9"/>
</mask>
<g mask="url(#mask0_2601_15338)">
<path d="M17.2525 32.4996C17.0025 32.4996 16.7818 32.4246 16.5905 32.2746C16.3985 32.1246 16.2691 31.9246 16.2025 31.6746L13.5775 22.3246C13.4941 22.1246 13.5235 21.9369 13.6655 21.7616C13.8068 21.5869 14.0025 21.4996 14.2525 21.4996H19.2525L23.3775 15.3246C23.4441 15.2246 23.5318 15.1413 23.6405 15.0746C23.7485 15.0079 23.8691 14.9746 24.0025 14.9746C24.1191 14.9746 24.2358 15.0079 24.3525 15.0746C24.4691 15.1413 24.5525 15.2246 24.6025 15.3246L28.7275 21.4996H33.7525C34.0025 21.4996 34.1981 21.5869 34.3395 21.7616C34.4815 21.9369 34.5108 22.1246 34.4275 22.3246L31.8025 31.6746C31.7191 31.9246 31.5735 32.1246 31.3655 32.2746C31.1568 32.4246 30.9275 32.4996 30.6775 32.4996H17.2525ZM17.5025 30.9996H30.5025L32.7025 22.9996H15.3025L17.5025 30.9996ZM24.0025 28.4996C24.4191 28.4996 24.7731 28.3536 25.0645 28.0616C25.3565 27.7703 25.5025 27.4163 25.5025 26.9996C25.5025 26.5829 25.3565 26.2289 25.0645 25.9376C24.7731 25.6456 24.4191 25.4996 24.0025 25.4996C23.5858 25.4996 23.2318 25.6456 22.9405 25.9376C22.6485 26.2289 22.5025 26.5829 22.5025 26.9996C22.5025 27.4163 22.6485 27.7703 22.9405 28.0616C23.2318 28.3536 23.5858 28.4996 24.0025 28.4996ZM21.0775 21.4996H26.9275L23.9775 17.0996L21.0775 21.4996Z" fill="#101010"/>
</g>
</svg>
