<svg width="56" height="56" viewBox="0 0 56 56" fill="none" xmlns="http://www.w3.org/2000/svg">
<rect x="4" y="4" width="48" height="48" rx="24" fill="#FFD580"/>
<mask id="mask0_2499_14820" style="mask-type:alpha" maskUnits="userSpaceOnUse" x="15" y="16" width="25" height="25">
<rect x="15.7148" y="16.3574" width="24" height="24" fill="#D9D9D9"/>
</mask>
<g mask="url(#mask0_2499_14820)">
<path d="M32.9148 37.8582C31.6648 37.8582 30.6025 37.4209 29.7278 36.5462C28.8525 35.6709 28.4148 34.6082 28.4148 33.3582C28.4148 32.1082 28.8525 31.0455 29.7278 30.1702C30.6025 29.2955 31.6648 28.8582 32.9148 28.8582C34.1482 28.8582 35.2065 29.2955 36.0898 30.1702C36.9732 31.0455 37.4148 32.1082 37.4148 33.3582C37.4148 34.6082 36.9732 35.6709 36.0898 36.5462C35.2065 37.4209 34.1482 37.8582 32.9148 37.8582ZM34.5648 35.6582L35.1898 35.0332L33.3398 33.1832V30.4082H32.4648V33.5332L34.5648 35.6582ZM21.0148 36.8582C20.5148 36.8582 20.0898 36.6832 19.7398 36.3332C19.3898 35.9832 19.2148 35.5582 19.2148 35.0582V21.6582C19.2148 21.1582 19.3898 20.7332 19.7398 20.3832C20.0898 20.0332 20.5148 19.8582 21.0148 19.8582H25.4398C25.5732 19.3749 25.8522 18.9705 26.2768 18.6452C26.7022 18.3205 27.1815 18.1582 27.7148 18.1582C28.2648 18.1582 28.7525 18.3205 29.1778 18.6452C29.6025 18.9705 29.8815 19.3749 30.0148 19.8582H34.4148C34.9148 19.8582 35.3398 20.0332 35.6898 20.3832C36.0398 20.7332 36.2148 21.1582 36.2148 21.6582V27.8082C35.9815 27.6582 35.7442 27.5289 35.5028 27.4202C35.2608 27.3122 34.9982 27.2082 34.7148 27.1082V21.6582C34.7148 21.5749 34.6858 21.5042 34.6278 21.4462C34.5692 21.3875 34.4982 21.3582 34.4148 21.3582H32.2148V23.9832H23.2148V21.3582H21.0148C20.9315 21.3582 20.8608 21.3875 20.8028 21.4462C20.7442 21.5042 20.7148 21.5749 20.7148 21.6582V35.0582C20.7148 35.1415 20.7442 35.2125 20.8028 35.2712C20.8608 35.3292 20.9315 35.3582 21.0148 35.3582H26.7398C26.8232 35.6415 26.9188 35.9042 27.0268 36.1462C27.1355 36.3875 27.2732 36.6249 27.4398 36.8582H21.0148ZM27.7148 21.4832C27.9648 21.4832 28.1772 21.3955 28.3518 21.2202C28.5272 21.0455 28.6148 20.8249 28.6148 20.5582C28.6148 20.3082 28.5272 20.0955 28.3518 19.9202C28.1772 19.7455 27.9648 19.6582 27.7148 19.6582C27.4648 19.6582 27.2525 19.7455 27.0778 19.9202C26.9025 20.0955 26.8148 20.3165 26.8148 20.5832C26.8148 20.8332 26.9025 21.0455 27.0778 21.2202C27.2525 21.3955 27.4648 21.4832 27.7148 21.4832Z" fill="#1C1B1F"/>
</g>
<rect x="4" y="4" width="48" height="48" rx="24" stroke="#FFBD2E" stroke-opacity="0.2" stroke-width="8"/>
</svg>
