<svg width="56" height="56" viewBox="0 0 56 56" fill="none" xmlns="http://www.w3.org/2000/svg">
<rect x="4" y="4" width="48" height="48" rx="24" fill="#FFDEDE"/>
<mask id="mask0_2499_14804" style="mask-type:alpha" maskUnits="userSpaceOnUse" x="16" y="16" width="25" height="25">
<rect x="16.2188" y="16.1914" width="24" height="24" fill="#D9D9D9"/>
</mask>
<g mask="url(#mask0_2499_14804)">
<path d="M28.2188 32.8914C28.4521 32.8914 28.6437 32.8164 28.7937 32.6664C28.9437 32.5164 29.0188 32.3247 29.0188 32.0914C29.0188 31.8581 28.9437 31.6664 28.7937 31.5164C28.6437 31.3664 28.4521 31.2914 28.2188 31.2914C27.9854 31.2914 27.7938 31.3664 27.6438 31.5164C27.4938 31.6664 27.4187 31.8581 27.4187 32.0914C27.4187 32.3247 27.4938 32.5164 27.6438 32.6664C27.7938 32.8164 27.9854 32.8914 28.2188 32.8914ZM27.4688 29.4164H28.9688V23.3914H27.4688V29.4164ZM24.6687 36.6914L19.7188 31.7414V24.6414L24.6687 19.6914H31.7688L36.7188 24.6414V31.7414L31.7688 36.6914H24.6687ZM25.3188 35.1914H31.1187L35.2188 31.0914V25.2914L31.1187 21.1914H25.3188L21.2188 25.2914V31.0914L25.3188 35.1914Z" fill="#FF5F57"/>
</g>
<rect x="4" y="4" width="48" height="48" rx="24" stroke="#FFEFEF" stroke-width="8"/>
</svg>
