<svg width="48" height="48" viewBox="0 0 48 48" fill="none" xmlns="http://www.w3.org/2000/svg">
<rect width="48" height="48" rx="24" fill="#EBFFCF"/>
<mask id="mask0_2622_15317" style="mask-type:alpha" maskUnits="userSpaceOnUse" x="12" y="12" width="24" height="24">
<rect x="12" y="12" width="24" height="24" fill="#D9D9D9"/>
</mask>
<g mask="url(#mask0_2622_15317)">
<path d="M18.025 29.0375C18.875 28.4048 19.8 27.9053 20.8 27.539C21.8 27.1727 22.8667 26.9895 24 26.9895C25.1333 26.9895 26.2 27.1727 27.2 27.539C28.2 27.9053 29.125 28.4048 29.975 29.0375C30.5917 28.3548 31.0833 27.564 31.45 26.6648C31.8167 25.7657 32 24.7917 32 23.7427C32 21.5282 31.221 19.6424 29.663 18.0852C28.1043 16.5287 26.2167 15.7505 24 15.7505C21.7833 15.7505 19.896 16.5287 18.338 18.0852C16.7793 19.6424 16 21.5282 16 23.7427C16 24.7917 16.1833 25.7657 16.55 26.6648C16.9167 27.564 17.4083 28.3548 18.025 29.0375ZM24 24.492C23.0833 24.492 22.3127 24.1796 21.688 23.5549C21.0627 22.9308 20.75 22.1609 20.75 21.2451C20.75 20.3294 21.0627 19.5594 21.688 18.9354C22.3127 18.3107 23.0833 17.9983 24 17.9983C24.9167 17.9983 25.6873 18.3107 26.312 18.9354C26.9373 19.5594 27.25 20.3294 27.25 21.2451C27.25 22.1609 26.9373 22.9308 26.312 23.5549C25.6873 24.1796 24.9167 24.492 24 24.492ZM24 33.2334C22.6833 33.2334 21.446 32.9837 20.288 32.4841C19.1293 31.9846 18.125 31.3103 17.275 30.4611C16.425 29.612 15.75 28.6086 15.25 27.4511C14.75 26.2942 14.5 25.0581 14.5 23.7427C14.5 22.4273 14.75 21.1908 15.25 20.0333C15.75 18.8764 16.425 17.8734 17.275 17.0242C18.125 16.1751 19.1293 15.5007 20.288 15.0012C21.446 14.5017 22.6833 14.252 24 14.252C25.3167 14.252 26.5543 14.5017 27.713 15.0012C28.871 15.5007 29.875 16.1751 30.725 17.0242C31.575 17.8734 32.25 18.8764 32.75 20.0333C33.25 21.1908 33.5 22.4273 33.5 23.7427C33.5 25.0581 33.25 26.2942 32.75 27.4511C32.25 28.6086 31.575 29.612 30.725 30.4611C29.875 31.3103 28.871 31.9846 27.713 32.4841C26.5543 32.9837 25.3167 33.2334 24 33.2334ZM24 31.7349C24.9 31.7349 25.771 31.589 26.613 31.2973C27.4543 31.0063 28.2 30.6027 28.85 30.0865C28.2 29.587 27.4623 29.1957 26.637 28.9126C25.8123 28.6296 24.9333 28.488 24 28.488C23.0667 28.488 22.1877 28.6256 21.363 28.9006C20.5377 29.175 19.8 29.5703 19.15 30.0865C19.8 30.6027 20.5457 31.0063 21.387 31.2973C22.229 31.589 23.1 31.7349 24 31.7349ZM24 22.9934C24.5 22.9934 24.9167 22.8269 25.25 22.4939C25.5833 22.1609 25.75 21.7446 25.75 21.2451C25.75 20.7456 25.5833 20.3294 25.25 19.9963C24.9167 19.6633 24.5 19.4968 24 19.4968C23.5 19.4968 23.0833 19.6633 22.75 19.9963C22.4167 20.3294 22.25 20.7456 22.25 21.2451C22.25 21.7446 22.4167 22.1609 22.75 22.4939C23.0833 22.8269 23.5 22.9934 24 22.9934Z" fill="#1C1B1F"/>
</g>
</svg>
