<svg width="72" height="72" viewBox="0 0 72 72" fill="none" xmlns="http://www.w3.org/2000/svg">
<path d="M57.621 13.5C58.1836 14.0625 58.4998 14.8254 58.5 15.621V67.5C58.5 68.2956 58.1839 69.0587 57.6213 69.6213C57.0587 70.1839 56.2956 70.5 55.5 70.5H4.5C3.70435 70.5 2.94129 70.1839 2.37868 69.6213C1.81607 69.0587 1.5 68.2956 1.5 67.5V4.5C1.5 3.70435 1.81607 2.94129 2.37868 2.37868C2.94129 1.81607 3.70435 1.5 4.5 1.5H44.379C44.7731 1.50048 45.1633 1.57862 45.5273 1.72996C45.8912 1.88129 46.2217 2.10286 46.5 2.382L57.621 13.5Z" fill="#FF0202" fill-opacity="0.13"/>
<path d="M58.5 29.268V15.621C58.4998 14.8254 58.1836 14.0625 57.621 13.5L46.5 2.382C46.2217 2.10286 45.8912 1.88129 45.5273 1.72996C45.1633 1.57862 44.7731 1.50048 44.379 1.5H4.5C3.70435 1.5 2.94129 1.81607 2.37868 2.37868C1.81607 2.94129 1.5 3.70435 1.5 4.5V67.5C1.5 68.2956 1.81607 69.0587 2.37868 69.6213C2.94129 70.1839 3.70435 70.5 4.5 70.5H36.684" stroke="#C73C3C" stroke-linecap="round" stroke-linejoin="round"/>
<path d="M52.5 70.4785C56.0601 70.4785 59.5402 69.4228 62.5003 67.445C65.4604 65.4671 67.7675 62.6559 69.1298 59.3668C70.4922 56.0778 70.8487 52.4586 70.1541 48.9669C69.4596 45.4752 67.7453 42.2679 65.2279 39.7506C62.7106 37.2333 59.5033 35.5189 56.0116 34.8244C52.52 34.1299 48.9008 34.4863 45.6117 35.8487C42.3226 37.2111 39.5114 39.5182 37.5335 42.4783C35.5557 45.4383 34.5 48.9185 34.5 52.4785C34.5 57.2524 36.3964 61.8308 39.7721 65.2064C43.1477 68.5821 47.7261 70.4785 52.5 70.4785Z" fill="#FFEBEB"/>
<path d="M58.8627 46.1191L46.1367 58.8451" stroke="#C73C3C" stroke-linecap="round" stroke-linejoin="round"/>
<path d="M58.8627 58.8451L46.1367 46.1191" stroke="#C73C3C" stroke-linecap="round" stroke-linejoin="round"/>
<path d="M52.5 70.4785C56.0601 70.4785 59.5402 69.4228 62.5003 67.445C65.4603 65.4671 67.7675 62.6559 69.1298 59.3668C70.4922 56.0778 70.8487 52.4586 70.1541 48.9669C69.4596 45.4752 67.7453 42.2679 65.2279 39.7506C62.7106 37.2333 59.5033 35.5189 56.0116 34.8244C52.52 34.1299 48.9008 34.4863 45.6117 35.8487C42.3226 37.2111 39.5114 39.5182 37.5335 42.4783C35.5557 45.4383 34.5 48.9185 34.5 52.4785C34.5 57.2524 36.3964 61.8308 39.7721 65.2064C43.1477 68.5821 47.7261 70.4785 52.5 70.4785Z" stroke="#C73C3C" stroke-linecap="round" stroke-linejoin="round"/>
</svg>
