<svg width="32" height="32" viewBox="0 0 32 32" fill="none" xmlns="http://www.w3.org/2000/svg">
<rect x="0.5" y="0.5" width="31" height="31" rx="3.5" fill="#F7F7F7"/>
<path d="M15.9993 16.834C16.4596 16.834 16.8327 16.4609 16.8327 16.0007C16.8327 15.5404 16.4596 15.1673 15.9993 15.1673C15.5391 15.1673 15.166 15.5404 15.166 16.0007C15.166 16.4609 15.5391 16.834 15.9993 16.834Z" stroke="#555555" stroke-width="1.66667" stroke-linecap="round" stroke-linejoin="round"/>
<path d="M15.9993 11.0007C16.4596 11.0007 16.8327 10.6276 16.8327 10.1673C16.8327 9.70708 16.4596 9.33398 15.9993 9.33398C15.5391 9.33398 15.166 9.70708 15.166 10.1673C15.166 10.6276 15.5391 11.0007 15.9993 11.0007Z" stroke="#555555" stroke-width="1.66667" stroke-linecap="round" stroke-linejoin="round"/>
<path d="M15.9993 22.6673C16.4596 22.6673 16.8327 22.2942 16.8327 21.834C16.8327 21.3737 16.4596 21.0007 15.9993 21.0007C15.5391 21.0007 15.166 21.3737 15.166 21.834C15.166 22.2942 15.5391 22.6673 15.9993 22.6673Z" stroke="#555555" stroke-width="1.66667" stroke-linecap="round" stroke-linejoin="round"/>
<rect x="0.5" y="0.5" width="31" height="31" rx="3.5" stroke="#DADADA"/>
</svg>
