<svg width="120" height="120" viewBox="0 0 120 120" fill="none" xmlns="http://www.w3.org/2000/svg">
<path d="M30 14.9991L12.235 6.11913C11.4729 5.7383 10.6261 5.55853 9.77503 5.59686C8.92394 5.63519 8.09675 5.89036 7.37197 6.33816C6.64719 6.78595 6.04885 7.41151 5.63372 8.15549C5.21859 8.89946 5.00045 9.73717 5 10.5891V14.1141C5.00063 15.1132 5.30057 16.0893 5.86114 16.9163C6.42171 17.7433 7.21719 18.3835 8.145 18.7541L17.5 22.4991L14.4 24.5691C13.834 24.946 13.3508 25.4344 12.98 26.0044C12.6092 26.5745 12.3586 27.2141 12.2435 27.8843C12.1283 28.5545 12.1511 29.2411 12.3104 29.9022C12.4697 30.5633 12.7622 31.1849 13.17 31.7291L16 35.4991C16.4657 36.1201 17.0697 36.6241 17.7639 36.9713C18.4582 37.3184 19.2238 37.4991 20 37.4991L30 34.7591V14.9991Z" fill="#E4F2D1"/>
<path d="M90 14.9991L107.765 6.11913C108.527 5.7383 109.374 5.55853 110.225 5.59686C111.076 5.63519 111.903 5.89036 112.628 6.33816C113.353 6.78595 113.951 7.41151 114.366 8.15549C114.781 8.89946 115 9.73717 115 10.5891V14.1141C114.999 15.1132 114.699 16.0893 114.139 16.9163C113.578 17.7433 112.783 18.3835 111.855 18.7541L102.5 22.4991L105.6 24.5691C106.166 24.946 106.649 25.4344 107.02 26.0044C107.391 26.5745 107.641 27.2141 107.757 27.8843C107.872 28.5545 107.849 29.2411 107.69 29.9022C107.53 30.5633 107.238 31.1849 106.83 31.7291L104 35.4991C103.534 36.1201 102.93 36.6241 102.236 36.9713C101.542 37.3184 100.776 37.4991 100 37.4991L90 34.7591V14.9991Z" fill="#E4F2D1"/>
<path d="M85 2.5H35C32.2386 2.5 30 4.73858 30 7.5V42.5C30 45.2614 32.2386 47.5 35 47.5H85C87.7614 47.5 90 45.2614 90 42.5V7.5C90 4.73858 87.7614 2.5 85 2.5Z" fill="#E4F2D1"/>
<path d="M85 2.5H35C32.2386 2.5 30 4.73858 30 7.5V42.5C30 45.2614 32.2386 47.5 35 47.5H85C87.7614 47.5 90 45.2614 90 42.5V7.5C90 4.73858 87.7614 2.5 85 2.5Z" stroke="#00303E" stroke-width="2" stroke-linecap="round" stroke-linejoin="round"/>
<path d="M31.6797 3.76L56.9997 22.75C57.8652 23.3991 58.9178 23.75 59.9997 23.75C61.0815 23.75 62.1342 23.3991 62.9997 22.75L88.3197 3.75" stroke="#00303E" stroke-width="2" stroke-linecap="round" stroke-linejoin="round"/>
<path d="M60 72.5V117.5" stroke="#00303E" stroke-width="2" stroke-linecap="round" stroke-linejoin="round"/>
<path d="M45 62.5V97.5" stroke="#00303E" stroke-width="2" stroke-linecap="round" stroke-linejoin="round"/>
<path d="M75 62.5V97.5" stroke="#00303E" stroke-width="2" stroke-linecap="round" stroke-linejoin="round"/>
<path d="M90 14.9991L107.765 6.11913C108.527 5.7383 109.374 5.55853 110.225 5.59686C111.076 5.63519 111.903 5.89036 112.628 6.33816C113.353 6.78595 113.951 7.41151 114.366 8.15549C114.781 8.89946 115 9.73717 115 10.5891V14.1141C114.999 15.1132 114.699 16.0893 114.139 16.9163C113.578 17.7433 112.783 18.3835 111.855 18.7541L102.5 22.4991L105.6 24.5691C106.166 24.946 106.649 25.4344 107.02 26.0044C107.391 26.5745 107.641 27.2141 107.757 27.8843C107.872 28.5545 107.849 29.2411 107.69 29.9022C107.53 30.5633 107.238 31.1849 106.83 31.7291L104 35.4991C103.534 36.1201 102.93 36.6241 102.236 36.9713C101.542 37.3184 100.776 37.4991 100 37.4991" stroke="#00303E" stroke-width="2" stroke-linecap="round" stroke-linejoin="round"/>
<path d="M30 14.9991L12.235 6.11913C11.4729 5.7383 10.6261 5.55853 9.77503 5.59686C8.92394 5.63519 8.09675 5.89036 7.37197 6.33816C6.64719 6.78595 6.04885 7.41151 5.63372 8.15549C5.21859 8.89946 5.00045 9.73717 5 10.5891V14.1141C5.00063 15.1132 5.30057 16.0893 5.86114 16.9163C6.42171 17.7433 7.21719 18.3835 8.145 18.7541L17.5 22.4991L14.4 24.5691C13.834 24.946 13.3508 25.4344 12.98 26.0044C12.6092 26.5745 12.3586 27.2141 12.2435 27.8843C12.1283 28.5545 12.1511 29.2411 12.3104 29.9022C12.4697 30.5633 12.7622 31.1849 13.17 31.7291L16 35.4991C16.4657 36.1201 17.0697 36.6241 17.7639 36.9713C18.4582 37.3184 19.2238 37.4991 20 37.4991" stroke="#00303E" stroke-width="2" stroke-linecap="round" stroke-linejoin="round"/>
</svg>
