<svg width="98" height="24" viewBox="0 0 98 24" fill="none" xmlns="http://www.w3.org/2000/svg">
<mask id="mask0_2659_17409" style="mask-type:alpha" maskUnits="userSpaceOnUse" x="0" y="0" width="24" height="24">
<rect width="24" height="24" fill="#D9D9D9"/>
</mask>
<g mask="url(#mask0_2659_17409)">
<path d="M4.325 19.6742V18.1742H7.25L6.525 17.4742C5.70833 16.7076 5.125 15.8532 4.775 14.9112C4.425 13.9699 4.25 13.0242 4.25 12.0742C4.25 10.3409 4.75433 8.79089 5.763 7.42422C6.771 6.05755 8.1 5.11589 9.75 4.59922V6.17422C8.55 6.64089 7.58333 7.41189 6.85 8.48722C6.11667 9.56189 5.75 10.7576 5.75 12.0742C5.75 12.8576 5.9 13.6159 6.2 14.3492C6.5 15.0826 6.95833 15.7659 7.575 16.3992L8.2 17.0242V14.2992H9.7V19.6742H4.325ZM14.25 19.3992V17.8242C15.45 17.3576 16.4167 16.5866 17.15 15.5112C17.8833 14.4366 18.25 13.2409 18.25 11.9242C18.25 11.1409 18.1 10.3826 17.8 9.64922C17.5 8.91588 17.0417 8.23255 16.425 7.59922L15.8 6.97422V9.69922H14.3V4.32422H19.675V5.82422H16.75L17.475 6.52422C18.275 7.30755 18.854 8.16589 19.212 9.09922C19.5707 10.0326 19.75 10.9742 19.75 11.9242C19.75 13.6576 19.246 15.2076 18.238 16.5742C17.2293 17.9409 15.9 18.8826 14.25 19.3992Z" fill="#101010"/>
</g>
<path d="M29.1186 17.5V7.31818H32.7479C33.5367 7.31818 34.1913 7.45407 34.7116 7.72585C35.2353 7.99763 35.6264 8.37382 35.8849 8.8544C36.1435 9.33168 36.2727 9.88352 36.2727 10.5099C36.2727 11.133 36.1418 11.6816 35.88 12.1555C35.6214 12.6262 35.2304 12.9924 34.7067 13.2543C34.1863 13.5161 33.5317 13.647 32.7429 13.647H29.9936V12.3246H32.6037C33.1009 12.3246 33.5052 12.2533 33.8168 12.1108C34.1316 11.9683 34.362 11.7611 34.5078 11.4893C34.6536 11.2176 34.7266 10.8911 34.7266 10.5099C34.7266 10.1255 34.652 9.79238 34.5028 9.51065C34.357 9.22893 34.1267 9.01349 33.8118 8.86435C33.5002 8.71188 33.0909 8.63565 32.5838 8.63565H30.6548V17.5H29.1186ZM34.1449 12.9062L36.6605 17.5H34.9105L32.4446 12.9062H34.1449ZM41.2182 17.6541C40.4658 17.6541 39.8179 17.4934 39.2743 17.1719C38.7341 16.8471 38.3165 16.3913 38.0215 15.8047C37.7298 15.2147 37.584 14.5237 37.584 13.7315C37.584 12.9493 37.7298 12.2599 38.0215 11.6634C38.3165 11.0668 38.7275 10.6011 39.2544 10.2663C39.7847 9.93158 40.4045 9.7642 41.1138 9.7642C41.5447 9.7642 41.9623 9.83546 42.3667 9.97798C42.771 10.1205 43.1339 10.3442 43.4554 10.6491C43.7769 10.9541 44.0305 11.3501 44.2161 11.8374C44.4017 12.3213 44.4945 12.9096 44.4945 13.6023V14.1293H38.4242V13.0156H43.0378C43.0378 12.6245 42.9583 12.2782 42.7992 11.9766C42.6401 11.6716 42.4164 11.4313 42.128 11.2557C41.843 11.08 41.5082 10.9922 41.1238 10.9922C40.7061 10.9922 40.3416 11.0949 40.03 11.3004C39.7218 11.5026 39.4831 11.7678 39.3141 12.0959C39.1484 12.4207 39.0655 12.7737 39.0655 13.1548V14.0249C39.0655 14.5353 39.155 14.9695 39.334 15.3274C39.5163 15.6854 39.7698 15.9588 40.0946 16.1477C40.4194 16.3333 40.7989 16.4261 41.2331 16.4261C41.5149 16.4261 41.7717 16.3864 42.0037 16.3068C42.2357 16.224 42.4363 16.1013 42.6053 15.9389C42.7743 15.7765 42.9036 15.576 42.9931 15.3374L44.4 15.5909C44.2873 16.0052 44.0852 16.3681 43.7935 16.6797C43.5051 16.9879 43.1422 17.2282 42.7047 17.4006C42.2705 17.5696 41.775 17.6541 41.2182 17.6541ZM50.6431 12.5533V13.8409H46.1289V12.5533H50.6431ZM57.4616 14.3331V9.86364H58.9531V17.5H57.4915V16.1776H57.4119C57.2363 16.5852 56.9545 16.925 56.5668 17.1967C56.1823 17.4652 55.7034 17.5994 55.13 17.5994C54.6394 17.5994 54.2053 17.4917 53.8274 17.2763C53.4529 17.0575 53.1579 16.7344 52.9425 16.3068C52.7304 15.8793 52.6243 15.3506 52.6243 14.7209V9.86364H54.1108V14.5419C54.1108 15.0623 54.255 15.4766 54.5433 15.7848C54.8317 16.093 55.2062 16.2472 55.6669 16.2472C55.9453 16.2472 56.2221 16.1776 56.4972 16.0384C56.7756 15.8991 57.0059 15.6887 57.1882 15.407C57.3738 15.1252 57.465 14.7673 57.4616 14.3331ZM60.9505 20.3636V9.86364H62.4022V11.1016H62.5265C62.6126 10.9425 62.7369 10.7585 62.8993 10.5497C63.0617 10.3409 63.2871 10.1586 63.5755 10.0028C63.8638 9.84375 64.245 9.7642 64.7189 9.7642C65.3354 9.7642 65.8856 9.91998 66.3695 10.2315C66.8534 10.5431 67.2329 10.9922 67.508 11.5788C67.7864 12.1655 67.9256 12.8714 67.9256 13.6967C67.9256 14.522 67.7881 15.2296 67.513 15.8196C67.2379 16.4062 66.86 16.8587 66.3794 17.1768C65.8989 17.4917 65.3503 17.6491 64.7338 17.6491C64.2698 17.6491 63.8903 17.5713 63.5953 17.4155C63.3037 17.2597 63.075 17.0774 62.9093 16.8686C62.7435 16.6598 62.6159 16.4742 62.5265 16.3118H62.437V20.3636H60.9505ZM62.4071 13.6818C62.4071 14.2187 62.485 14.6894 62.6408 15.0938C62.7966 15.4981 63.022 15.8146 63.3169 16.0433C63.6119 16.2687 63.9732 16.3814 64.4007 16.3814C64.8449 16.3814 65.2161 16.2637 65.5144 16.0284C65.8127 15.7898 66.0381 15.4666 66.1905 15.0589C66.3463 14.6513 66.4242 14.1922 66.4242 13.6818C66.4242 13.178 66.348 12.7256 66.1955 12.3246C66.0463 11.9235 65.821 11.607 65.5194 11.375C65.2211 11.143 64.8482 11.027 64.4007 11.027C63.9699 11.027 63.6053 11.138 63.307 11.3601C63.012 11.5821 62.7883 11.892 62.6358 12.2898C62.4834 12.6875 62.4071 13.1515 62.4071 13.6818ZM71.0776 7.31818V17.5H69.5911V7.31818H71.0776ZM76.294 17.6541C75.5781 17.6541 74.9534 17.4901 74.4197 17.1619C73.8861 16.8338 73.4718 16.3748 73.1768 15.7848C72.8819 15.1948 72.7344 14.5054 72.7344 13.7166C72.7344 12.9245 72.8819 12.2318 73.1768 11.6385C73.4718 11.0452 73.8861 10.5845 74.4197 10.2564C74.9534 9.92827 75.5781 9.7642 76.294 9.7642C77.0099 9.7642 77.6347 9.92827 78.1683 10.2564C78.7019 10.5845 79.1162 11.0452 79.4112 11.6385C79.7062 12.2318 79.8537 12.9245 79.8537 13.7166C79.8537 14.5054 79.7062 15.1948 79.4112 15.7848C79.1162 16.3748 78.7019 16.8338 78.1683 17.1619C77.6347 17.4901 77.0099 17.6541 76.294 17.6541ZM76.299 16.4062C76.763 16.4062 77.1475 16.2836 77.4524 16.0384C77.7573 15.7931 77.9827 15.4666 78.1286 15.0589C78.2777 14.6513 78.3523 14.2022 78.3523 13.7116C78.3523 13.2244 78.2777 12.777 78.1286 12.3693C77.9827 11.9583 77.7573 11.6286 77.4524 11.38C77.1475 11.1314 76.763 11.0071 76.299 11.0071C75.8317 11.0071 75.4439 11.1314 75.1357 11.38C74.8307 11.6286 74.6037 11.9583 74.4545 12.3693C74.3087 12.777 74.2358 13.2244 74.2358 13.7116C74.2358 14.2022 74.3087 14.6513 74.4545 15.0589C74.6037 15.4666 74.8307 15.7931 75.1357 16.0384C75.4439 16.2836 75.8317 16.4062 76.299 16.4062ZM83.7353 17.669C83.2514 17.669 82.8139 17.5795 82.4228 17.4006C82.0317 17.2183 81.7218 16.9548 81.4931 16.6101C81.2677 16.2654 81.155 15.8428 81.155 15.3423C81.155 14.9115 81.2379 14.5568 81.4036 14.2784C81.5693 14 81.793 13.7796 82.0748 13.6172C82.3565 13.4548 82.6713 13.3321 83.0194 13.2493C83.3674 13.1664 83.722 13.1035 84.0833 13.0604C84.5407 13.0073 84.9119 12.9643 85.1969 12.9311C85.4819 12.8946 85.6891 12.8366 85.8184 12.7571C85.9476 12.6776 86.0123 12.5483 86.0123 12.3693V12.3345C86.0123 11.9003 85.8896 11.5639 85.6444 11.3253C85.4024 11.0866 85.0411 10.9673 84.5605 10.9673C84.0601 10.9673 83.6657 11.0784 83.3773 11.3004C83.0923 11.5192 82.8951 11.7628 82.7857 12.0312L81.3887 11.7131C81.5544 11.2491 81.7963 10.8745 82.1145 10.5895C82.436 10.3011 82.8056 10.0923 83.2232 9.96307C83.6408 9.83049 84.08 9.7642 84.5407 9.7642C84.8456 9.7642 85.1687 9.80066 85.5101 9.87358C85.8548 9.94318 86.1763 10.0724 86.4746 10.2614C86.7762 10.4503 87.0231 10.7204 87.2154 11.0717C87.4076 11.4197 87.5037 11.8722 87.5037 12.429V17.5H86.052V16.456H85.9924C85.8962 16.6482 85.7521 16.8371 85.5598 17.0227C85.3676 17.2083 85.1207 17.3625 84.8191 17.4851C84.5175 17.6077 84.1562 17.669 83.7353 17.669ZM84.0584 16.4759C84.4694 16.4759 84.8207 16.3946 85.1124 16.2322C85.4074 16.0698 85.6311 15.8577 85.7836 15.5959C85.9393 15.3307 86.0172 15.0473 86.0172 14.7457V13.7614C85.9642 13.8144 85.8614 13.8641 85.709 13.9105C85.5598 13.9536 85.3891 13.9917 85.1969 14.0249C85.0047 14.0547 84.8174 14.0829 84.6351 14.1094C84.4528 14.1326 84.3004 14.1525 84.1777 14.169C83.8894 14.2055 83.6259 14.2668 83.3873 14.353C83.1519 14.4392 82.963 14.5634 82.8205 14.7259C82.6813 14.8849 82.6117 15.0971 82.6117 15.3622C82.6117 15.7301 82.7476 16.0085 83.0194 16.1974C83.2911 16.383 83.6375 16.4759 84.0584 16.4759ZM92.3423 17.6491C91.7259 17.6491 91.1757 17.4917 90.6918 17.1768C90.2112 16.8587 89.8333 16.4062 89.5582 15.8196C89.2865 15.2296 89.1506 14.522 89.1506 13.6967C89.1506 12.8714 89.2881 12.1655 89.5632 11.5788C89.8416 10.9922 90.2228 10.5431 90.7067 10.2315C91.1906 9.91998 91.7391 9.7642 92.3523 9.7642C92.8262 9.7642 93.2074 9.84375 93.4957 10.0028C93.7874 10.1586 94.0128 10.3409 94.1719 10.5497C94.3343 10.7585 94.4602 10.9425 94.5497 11.1016H94.6392V7.31818H96.1257V17.5H94.674V16.3118H94.5497C94.4602 16.4742 94.331 16.6598 94.1619 16.8686C93.9962 17.0774 93.7675 17.2597 93.4759 17.4155C93.1842 17.5713 92.8063 17.6491 92.3423 17.6491ZM92.6705 16.3814C93.098 16.3814 93.4593 16.2687 93.7543 16.0433C94.0526 15.8146 94.2779 15.4981 94.4304 15.0938C94.5862 14.6894 94.6641 14.2187 94.6641 13.6818C94.6641 13.1515 94.5878 12.6875 94.4354 12.2898C94.2829 11.892 94.0592 11.5821 93.7642 11.3601C93.4692 11.138 93.1046 11.027 92.6705 11.027C92.223 11.027 91.8501 11.143 91.5518 11.375C91.2536 11.607 91.0282 11.9235 90.8757 12.3246C90.7266 12.7256 90.652 13.178 90.652 13.6818C90.652 14.1922 90.7282 14.6513 90.8807 15.0589C91.0331 15.4666 91.2585 15.7898 91.5568 16.0284C91.8584 16.2637 92.2296 16.3814 92.6705 16.3814Z" fill="#101010"/>
</svg>
