<svg width="80" height="24" viewBox="0 0 80 24" fill="none" xmlns="http://www.w3.org/2000/svg">
<g opacity="0.5">
<mask id="mask0_2659_17400" style="mask-type:alpha" maskUnits="userSpaceOnUse" x="0" y="0" width="24" height="24">
<rect width="24" height="24" fill="#D9D9D9"/>
</mask>
<g mask="url(#mask0_2659_17400)">
<path d="M10.575 16.25L17.3 9.525L16.25 8.475L10.575 14.15L7.725 11.3L6.675 12.35L10.575 16.25ZM12 21.5C10.6833 21.5 9.446 21.25 8.288 20.75C7.12933 20.25 6.125 19.575 5.275 18.725C4.425 17.875 3.75 16.8707 3.25 15.712C2.75 14.554 2.5 13.3167 2.5 12C2.5 10.6833 2.75 9.44567 3.25 8.287C3.75 7.129 4.425 6.125 5.275 5.275C6.125 4.425 7.12933 3.75 8.288 3.25C9.446 2.75 10.6833 2.5 12 2.5C13.3167 2.5 14.5543 2.75 15.713 3.25C16.871 3.75 17.875 4.425 18.725 5.275C19.575 6.125 20.25 7.129 20.75 8.287C21.25 9.44567 21.5 10.6833 21.5 12C21.5 13.3167 21.25 14.554 20.75 15.712C20.25 16.8707 19.575 17.875 18.725 18.725C17.875 19.575 16.871 20.25 15.713 20.75C14.5543 21.25 13.3167 21.5 12 21.5ZM12 20C14.2333 20 16.125 19.225 17.675 17.675C19.225 16.125 20 14.2333 20 12C20 9.76667 19.225 7.875 17.675 6.325C16.125 4.775 14.2333 4 12 4C9.76667 4 7.875 4.775 6.325 6.325C4.775 7.875 4 9.76667 4 12C4 14.2333 4.775 16.125 6.325 17.675C7.875 19.225 9.76667 20 12 20Z" fill="#1C1B1F"/>
</g>
<path d="M30.0085 7.31818L32.8423 15.6108H32.9567L35.7905 7.31818H37.451L33.7869 17.5H32.0121L28.348 7.31818H30.0085ZM41.3276 17.6541C40.5752 17.6541 39.9273 17.4934 39.3837 17.1719C38.8435 16.8471 38.4258 16.3913 38.1309 15.8047C37.8392 15.2147 37.6934 14.5237 37.6934 13.7315C37.6934 12.9493 37.8392 12.2599 38.1309 11.6634C38.4258 11.0668 38.8368 10.6011 39.3638 10.2663C39.8941 9.93158 40.5139 9.7642 41.2232 9.7642C41.6541 9.7642 42.0717 9.83546 42.476 9.97798C42.8804 10.1205 43.2433 10.3442 43.5648 10.6491C43.8863 10.9541 44.1399 11.3501 44.3255 11.8374C44.5111 12.3213 44.6039 12.9096 44.6039 13.6023V14.1293H38.5336V13.0156H43.1472C43.1472 12.6245 43.0676 12.2782 42.9086 11.9766C42.7495 11.6716 42.5257 11.4313 42.2374 11.2557C41.9524 11.08 41.6176 10.9922 41.2331 10.9922C40.8155 10.9922 40.4509 11.0949 40.1394 11.3004C39.8311 11.5026 39.5925 11.7678 39.4235 12.0959C39.2578 12.4207 39.1749 12.7737 39.1749 13.1548V14.0249C39.1749 14.5353 39.2644 14.9695 39.4434 15.3274C39.6257 15.6854 39.8792 15.9588 40.204 16.1477C40.5288 16.3333 40.9083 16.4261 41.3425 16.4261C41.6242 16.4261 41.8811 16.3864 42.1131 16.3068C42.3451 16.224 42.5456 16.1013 42.7147 15.9389C42.8837 15.7765 43.013 15.576 43.1025 15.3374L44.5094 15.5909C44.3967 16.0052 44.1945 16.3681 43.9029 16.6797C43.6145 16.9879 43.2516 17.2282 42.8141 17.4006C42.3799 17.5696 41.8844 17.6541 41.3276 17.6541ZM46.2532 17.5V9.86364H47.69V11.0767H47.7695C47.9087 10.6657 48.154 10.3426 48.5053 10.1072C48.86 9.86861 49.261 9.74929 49.7085 9.74929C49.8013 9.74929 49.9106 9.7526 50.0366 9.75923C50.1658 9.76586 50.2669 9.77415 50.3398 9.78409V11.206C50.2802 11.1894 50.1741 11.1712 50.0217 11.1513C49.8692 11.1281 49.7167 11.1165 49.5643 11.1165C49.213 11.1165 48.8997 11.1911 48.6246 11.3402C48.3529 11.486 48.1374 11.6899 47.9783 11.9517C47.8192 12.2102 47.7397 12.5052 47.7397 12.8366V17.5H46.2532ZM51.6262 17.5V9.86364H53.1127V17.5H51.6262ZM52.377 8.68537C52.1184 8.68537 51.8964 8.59919 51.7108 8.42685C51.5285 8.25118 51.4373 8.04238 51.4373 7.80043C51.4373 7.55516 51.5285 7.34635 51.7108 7.17401C51.8964 6.99834 52.1184 6.91051 52.377 6.91051C52.6355 6.91051 52.8559 6.99834 53.0382 7.17401C53.2238 7.34635 53.3166 7.55516 53.3166 7.80043C53.3166 8.04238 53.2238 8.25118 53.0382 8.42685C52.8559 8.59919 52.6355 8.68537 52.377 8.68537ZM58.7468 9.86364V11.0568H54.4315V9.86364H58.7468ZM55.6147 17.5V8.97869C55.6147 8.50142 55.7191 8.10535 55.9279 7.79048C56.1367 7.4723 56.4135 7.23532 56.7582 7.07955C57.1029 6.92045 57.4774 6.84091 57.8817 6.84091C58.18 6.84091 58.4353 6.86577 58.6474 6.91548C58.8595 6.96188 59.0169 7.00497 59.1197 7.04474L58.7717 8.24787C58.7021 8.22798 58.6126 8.20478 58.5032 8.17827C58.3938 8.14844 58.2612 8.13352 58.1055 8.13352C57.7442 8.13352 57.4857 8.22301 57.3299 8.40199C57.1774 8.58097 57.1012 8.83949 57.1012 9.17756V17.5H55.6147ZM60.2805 17.5V9.86364H61.767V17.5H60.2805ZM61.0312 8.68537C60.7727 8.68537 60.5507 8.59919 60.3651 8.42685C60.1828 8.25118 60.0916 8.04238 60.0916 7.80043C60.0916 7.55516 60.1828 7.34635 60.3651 7.17401C60.5507 6.99834 60.7727 6.91051 61.0312 6.91051C61.2898 6.91051 61.5102 6.99834 61.6925 7.17401C61.8781 7.34635 61.9709 7.55516 61.9709 7.80043C61.9709 8.04238 61.8781 8.25118 61.6925 8.42685C61.5102 8.59919 61.2898 8.68537 61.0312 8.68537ZM67.0581 17.6541C66.3057 17.6541 65.6577 17.4934 65.1142 17.1719C64.5739 16.8471 64.1563 16.3913 63.8613 15.8047C63.5697 15.2147 63.4238 14.5237 63.4238 13.7315C63.4238 12.9493 63.5697 12.2599 63.8613 11.6634C64.1563 11.0668 64.5673 10.6011 65.0943 10.2663C65.6246 9.93158 66.2444 9.7642 66.9537 9.7642C67.3845 9.7642 67.8021 9.83546 68.2065 9.97798C68.6109 10.1205 68.9738 10.3442 69.2953 10.6491C69.6168 10.9541 69.8703 11.3501 70.0559 11.8374C70.2415 12.3213 70.3343 12.9096 70.3343 13.6023V14.1293H64.264V13.0156H68.8777C68.8777 12.6245 68.7981 12.2782 68.639 11.9766C68.4799 11.6716 68.2562 11.4313 67.9679 11.2557C67.6828 11.08 67.3481 10.9922 66.9636 10.9922C66.546 10.9922 66.1814 11.0949 65.8699 11.3004C65.5616 11.5026 65.323 11.7678 65.1539 12.0959C64.9882 12.4207 64.9054 12.7737 64.9054 13.1548V14.0249C64.9054 14.5353 64.9949 14.9695 65.1738 15.3274C65.3561 15.6854 65.6097 15.9588 65.9345 16.1477C66.2593 16.3333 66.6388 16.4261 67.073 16.4261C67.3547 16.4261 67.6116 16.3864 67.8436 16.3068C68.0756 16.224 68.2761 16.1013 68.4451 15.9389C68.6142 15.7765 68.7434 15.576 68.8329 15.3374L70.2399 15.5909C70.1272 16.0052 69.925 16.3681 69.6333 16.6797C69.345 16.9879 68.9821 17.2282 68.5446 17.4006C68.1104 17.5696 67.6149 17.6541 67.0581 17.6541ZM74.8423 17.6491C74.2259 17.6491 73.6757 17.4917 73.1918 17.1768C72.7112 16.8587 72.3333 16.4062 72.0582 15.8196C71.7865 15.2296 71.6506 14.522 71.6506 13.6967C71.6506 12.8714 71.7881 12.1655 72.0632 11.5788C72.3416 10.9922 72.7228 10.5431 73.2067 10.2315C73.6906 9.91998 74.2391 9.7642 74.8523 9.7642C75.3262 9.7642 75.7074 9.84375 75.9957 10.0028C76.2874 10.1586 76.5128 10.3409 76.6719 10.5497C76.8343 10.7585 76.9602 10.9425 77.0497 11.1016H77.1392V7.31818H78.6257V17.5H77.174V16.3118H77.0497C76.9602 16.4742 76.831 16.6598 76.6619 16.8686C76.4962 17.0774 76.2675 17.2597 75.9759 17.4155C75.6842 17.5713 75.3063 17.6491 74.8423 17.6491ZM75.1705 16.3814C75.598 16.3814 75.9593 16.2687 76.2543 16.0433C76.5526 15.8146 76.7779 15.4981 76.9304 15.0938C77.0862 14.6894 77.1641 14.2187 77.1641 13.6818C77.1641 13.1515 77.0878 12.6875 76.9354 12.2898C76.7829 11.892 76.5592 11.5821 76.2642 11.3601C75.9692 11.138 75.6046 11.027 75.1705 11.027C74.723 11.027 74.3501 11.143 74.0518 11.375C73.7536 11.607 73.5282 11.9235 73.3757 12.3246C73.2266 12.7256 73.152 13.178 73.152 13.6818C73.152 14.1922 73.2282 14.6513 73.3807 15.0589C73.5331 15.4666 73.7585 15.7898 74.0568 16.0284C74.3584 16.2637 74.7296 16.3814 75.1705 16.3814Z" fill="#101010"/>
</g>
</svg>
