<svg width="53" height="52" viewBox="0 0 53 52" fill="none" xmlns="http://www.w3.org/2000/svg">
<path d="M40.5859 50.9173H3.7526C3.17797 50.9173 2.62687 50.689 2.22054 50.2827C1.81421 49.8764 1.58594 49.3253 1.58594 48.7506V3.25065C1.58594 2.67602 1.81421 2.12492 2.22054 1.71859C2.62687 1.31226 3.17797 1.08398 3.7526 1.08398H32.5541C33.1287 1.08411 33.6797 1.31246 34.0859 1.71882L42.1178 9.75065C42.5241 10.1569 42.7525 10.7079 42.7526 11.2825V48.7506C42.7526 49.3253 42.5243 49.8764 42.118 50.2827C41.7117 50.689 41.1606 50.9173 40.5859 50.9173Z" fill="#C8DFAA"/>
<path d="M22.1693 50.9173H3.7526C3.17797 50.9173 2.62687 50.689 2.22054 50.2827C1.81421 49.8764 1.58594 49.3253 1.58594 48.7506V3.25065C1.58594 2.67602 1.81421 2.12492 2.22054 1.71859C2.62687 1.31226 3.17797 1.08398 3.7526 1.08398H32.5541C33.1287 1.08411 33.6797 1.31246 34.0859 1.71882L42.1178 9.75065C42.5241 10.1569 42.7525 10.7079 42.7526 11.2825V19.6935" stroke="#00303E" stroke-linecap="round" stroke-linejoin="round"/>
<path d="M7 31.416H20" stroke="#00303E" stroke-linecap="round" stroke-linejoin="round"/>
<path d="M10.2474 20.584H12.4141C12.7014 20.584 12.9769 20.6981 13.1801 20.9013C13.3833 21.1044 13.4974 21.38 13.4974 21.6673V31.4173H9.16406V21.6673C9.16406 21.38 9.2782 21.1044 9.48136 20.9013C9.68453 20.6981 9.96008 20.584 10.2474 20.584Z" fill="#C8DFAA" stroke="#00303E" stroke-linecap="round" stroke-linejoin="round"/>
<path d="M22.1693 31.4173V15.1673C22.1693 14.88 22.0551 14.6044 21.852 14.4013C21.6488 14.1981 21.3733 14.084 21.0859 14.084H18.9193C18.632 14.084 18.3564 14.1981 18.1532 14.4013C17.9501 14.6044 17.8359 14.88 17.8359 15.1673V31.4173H22.1693Z" fill="#C8DFAA" stroke="#00303E" stroke-linecap="round" stroke-linejoin="round"/>
<path d="M39.9467 25.8285L43.2812 33.5635H49.7682C50.096 33.5506 50.4198 33.6393 50.6953 33.8174C50.9708 33.9955 51.1845 34.2544 51.3074 34.5586C51.4302 34.8628 51.456 35.1975 51.3814 35.5169C51.3068 35.8364 51.1354 36.125 50.8906 36.3433L45.2572 41.3613L48.3816 48.533C48.5185 48.8613 48.549 49.2243 48.4689 49.5709C48.3887 49.9175 48.2019 50.2302 47.9348 50.4651C47.6676 50.6999 47.3335 50.8451 46.9795 50.8802C46.6256 50.9153 46.2695 50.8385 45.9614 50.6607L38.4344 46.4118L30.8944 50.6607C30.5862 50.8387 30.2299 50.9156 29.8756 50.8807C29.5214 50.8457 29.187 50.7007 28.9195 50.4659C28.6519 50.2311 28.4647 49.9184 28.384 49.5717C28.3034 49.225 28.3334 48.8618 28.4699 48.533L31.5834 41.357L25.9501 36.339C25.7046 36.1217 25.5324 35.8338 25.4569 35.5148C25.3813 35.1958 25.4062 34.8613 25.5281 34.557C25.65 34.2527 25.863 33.9935 26.1379 33.8149C26.4128 33.6362 26.7361 33.5469 27.0637 33.5592H33.5637L36.9026 25.8242C37.0509 25.5485 37.2712 25.3181 37.5399 25.1575C37.8087 24.9969 38.1159 24.9121 38.429 24.9121C38.7421 24.9121 39.0493 24.9969 39.3181 25.1575C39.5868 25.3181 39.8071 25.5485 39.9554 25.8242L39.9467 25.8285Z" fill="#C8DFAA"/>
<path d="M43.2821 33.5631L39.9476 25.8281C39.7992 25.5524 39.579 25.322 39.3102 25.1614C39.0415 25.0008 38.7343 24.916 38.4212 24.916C38.1081 24.916 37.8009 25.0008 37.5321 25.1614C37.2633 25.322 37.0431 25.5524 36.8948 25.8281L33.5559 33.5631H27.0559C26.7283 33.5508 26.405 33.6401 26.1301 33.8188C25.8552 33.9974 25.6422 34.2566 25.5203 34.5609C25.3984 34.8652 25.3735 35.1997 25.449 35.5187C25.5246 35.8377 25.6968 36.1256 25.9423 36.3429L31.5756 41.3609L28.4708 48.5326C28.3165 48.9165 28.3088 49.3437 28.4491 49.7329L44.6254 33.5566L43.2821 33.5631Z" fill="#C8DFAA"/>
<path d="M39.9467 25.8285L43.2812 33.5635H49.7682C50.096 33.5506 50.4198 33.6393 50.6953 33.8174C50.9708 33.9955 51.1845 34.2544 51.3074 34.5586C51.4302 34.8628 51.456 35.1975 51.3814 35.5169C51.3068 35.8364 51.1354 36.125 50.8906 36.3433L45.2572 41.3613L48.3816 48.533C48.5185 48.8613 48.549 49.2243 48.4689 49.5709C48.3887 49.9175 48.2019 50.2302 47.9348 50.4651C47.6676 50.6999 47.3335 50.8451 46.9795 50.8802C46.6256 50.9153 46.2695 50.8385 45.9614 50.6607L38.4344 46.4118L30.8944 50.6607C30.5862 50.8387 30.2299 50.9156 29.8756 50.8807C29.5214 50.8457 29.187 50.7007 28.9195 50.4659C28.6519 50.2311 28.4647 49.9184 28.384 49.5717C28.3034 49.225 28.3334 48.8618 28.4699 48.533L31.5834 41.357L25.9501 36.339C25.7046 36.1217 25.5324 35.8338 25.4569 35.5148C25.3813 35.1958 25.4062 34.8613 25.5281 34.557C25.65 34.2527 25.863 33.9935 26.1379 33.8149C26.4128 33.6362 26.7361 33.5469 27.0637 33.5592H33.5637L36.9026 25.8242C37.0509 25.5485 37.2712 25.3181 37.5399 25.1575C37.8087 24.9969 38.1159 24.9121 38.429 24.9121C38.7421 24.9121 39.0493 24.9969 39.3181 25.1575C39.5868 25.3181 39.8071 25.5485 39.9554 25.8242L39.9467 25.8285Z" stroke="#00303E" stroke-linecap="round" stroke-linejoin="round"/>
</svg>
