<svg width="506" height="198" viewBox="0 0 506 198" fill="none" xmlns="http://www.w3.org/2000/svg">
<g style="mix-blend-mode:multiply" opacity="0.1">
<path d="M502.856 101.698L506 103.184V198H0V11.4174L3.13808 24.5091L6.28179 28.9851L9.4255 21.5016L12.5692 6.05682L15.7129 1.91699L18.8566 11.152L22.0003 31.5327L25.144 55.0802L28.2877 48.6405L31.4314 66.8451L34.5751 85.8282L37.7188 53.0811L40.8626 22.5985L44.0063 31.1789L47.15 41.2631L50.2937 39.1755L53.4374 35.2126L56.5811 45.1906L59.7248 68.915L62.8685 67.482L66.0122 63.7668L69.1559 81.8653L72.2996 52.2672L75.4433 39.4055L78.587 46.0752L81.7307 73.2141L84.8744 65.9252L88.0181 55.381L91.1618 41.5992L94.3055 35.4956L97.4492 55.5933L100.593 30.542L103.737 32.665L106.88 49.1712L110.024 43.3861L113.168 43.1561L116.311 50.6573L119.455 34.7526L122.599 38.9455L125.743 59.5385L128.886 70.7373L132.03 56.4425L135.174 43.2976L138.317 70.0827L141.461 81.2991L144.605 80.5207L147.749 46.0044L150.892 56.9555L154.036 62.0861L157.18 96.797L160.323 116.806L163.467 58.8131L166.611 47.6674L169.754 72.4357L172.898 54.6202L176.042 69.8173L179.186 77.7077L182.329 85.5097L185.473 83.1037L188.617 45.4737L191.76 58.5124L194.904 54.1249L198.048 52.4972L201.192 59.8392L204.335 41.9177L207.479 48.1451L210.623 52.1611L213.766 48.1097L216.91 57.1324L219.923 53.771L223.066 48.9943L226.21 49.4897L229.354 60.6354L232.498 47.4198L235.641 62.3691L238.785 54.7264L241.929 59.2024L245.072 44.9429L248.216 40.3608L251.36 67.0043L254.504 64.4744L257.647 65.9428L260.791 53.5941L263.935 62.723L267.078 55.8763L270.222 69.0389L273.366 67.5528L276.509 81.0338L279.653 78.15L282.797 80.8745L285.941 52.798L289.084 50.9404L292.228 75.3548L295.372 57.2209L298.515 83.8113L301.659 61.5023L304.803 55.2394L307.947 63.3776L311.09 63.8552L314.234 67.3582L317.378 84.6782L320.521 123.14L323.665 114.082L326.809 52.0019L329.952 80.9276L333.096 59.6269L336.24 72.5595L339.384 58.3001L342.527 67.4466L345.671 87.1727L348.815 93.2587L351.958 92.7633L355.102 91.9849L358.246 80.7153L361.39 99.7868L364.533 74.1871L367.677 96.1778L370.821 78.84L373.964 67.3228L377.108 119.761L380.252 135.825L383.395 140.584L386.539 125.563L389.683 110.366L392.827 91.6841L395.97 109.216L399.114 104.281L402.258 110.862L405.401 98.4423L408.545 107.43L411.689 80.5561L414.833 74.3464L417.976 103.237L421.12 135.382L424.264 91.7372L427.407 104.687L430.551 92.0379L433.695 77.5485L436.838 121.972L439.982 112.153L443.126 94.5855L446.27 121.477L449.413 124.414L452.557 131.26L455.701 135.825L458.844 94.2671L461.988 99.6984L465.132 132.587L468.276 106.174L471.419 99.0084L474.563 120.893L477.707 128.43L480.85 88.9419L483.994 103.944L487.138 107.607L490.281 99.6453L493.425 102.405L496.569 121.689L499.713 119.831L502.856 101.698Z" fill="url(#paint0_linear_734_6411)"/>
</g>
<path d="M506 103.184L502.856 101.698L499.713 119.831L496.569 121.689L493.425 102.405L490.282 99.6453L487.138 107.607L483.994 103.944L480.85 88.9419L477.707 128.43L474.563 120.893L471.419 99.0084L468.276 106.174L465.132 132.587L461.988 99.6984L458.844 94.2671L455.701 135.825L452.557 131.26L449.413 124.414L446.27 121.477L443.126 94.5855L439.982 112.153L436.839 121.972L433.695 77.5485L430.551 92.0379L427.407 104.687L424.264 91.7372L421.12 135.382L417.976 103.237L414.833 74.3464L411.689 80.5561L408.545 107.43L405.401 98.4423L402.258 110.862L399.114 104.281L395.97 109.216L392.827 91.6841L389.683 110.366L386.539 125.563L383.396 140.584L380.252 135.825L377.108 119.761L373.964 67.3228L370.821 78.84L367.677 96.1778L364.533 74.1871L361.39 99.7868L358.246 80.7153L355.102 91.9849L351.958 92.7633L348.815 93.2587L345.671 87.1727L342.527 67.4466L339.384 58.3001L336.24 72.5595L333.096 59.6269L329.952 80.9276L326.809 52.0019L323.665 114.082L320.521 123.14L317.378 84.6782L314.234 67.3582L311.09 63.8552L307.947 63.3776L304.803 55.2394L301.659 61.5023L298.515 83.8113L295.372 57.2209L292.228 75.3548L289.084 50.9404L285.941 52.798L282.797 80.8745L279.653 78.15L276.509 81.0338L273.366 67.5528L270.222 69.0389L267.078 55.8763L263.935 62.723L260.791 53.5941L257.647 65.9428L254.504 64.4744L251.36 67.0043L248.216 40.3608L245.072 44.9429L241.929 59.2024L238.785 54.7264L235.641 62.3691L232.498 47.4198L229.354 60.6354L226.21 49.4897L223.067 48.9943L219.923 53.771L216.91 57.1324L213.766 48.1097L210.623 52.1611L207.479 48.1451L204.335 41.9177L201.192 59.8392L198.048 52.4972L194.904 54.1249L191.76 58.5124L188.617 45.4737L185.473 83.1037L182.329 85.5097L179.186 77.7077L176.042 69.8173L172.898 54.6202L169.754 72.4357L166.611 47.6674L163.467 58.8131L160.323 116.806L157.18 96.797L154.036 62.0861L150.892 56.9555L147.749 46.0044L144.605 80.5207L141.461 81.2991L138.317 70.0827L135.174 43.2976L132.03 56.4425L128.886 70.7373L125.743 59.5385L122.599 38.9455L119.455 34.7526L116.311 50.6573L113.168 43.1561L110.024 43.3861L106.88 49.1712L103.737 32.665L100.593 30.542L97.4493 55.5933L94.3056 35.4956L91.1618 41.5992L88.0181 55.381L84.8744 65.9252L81.7307 73.2141L78.587 46.0752L75.4433 39.4055L72.2996 52.2672L69.1559 81.8653L66.0122 63.7668L62.8685 67.482L59.7248 68.915L56.5811 45.1906L53.4374 35.2126L50.2937 39.1755L47.15 41.2631L44.0063 31.1789L40.8626 22.5985L37.7188 53.0811L34.5751 85.8282L31.4314 66.8451L28.2877 48.6405L25.144 55.0802L22.0003 31.5327L18.8566 11.152L15.7129 1.91699L12.5692 6.05682L9.4255 21.5016L6.28179 28.9851L3.13808 24.5091L0 11.4174" stroke="#E14640" stroke-width="2" stroke-linecap="round" stroke-linejoin="round"/>
<defs>
<linearGradient id="paint0_linear_734_6411" x1="253" y1="1.91699" x2="253" y2="189.271" gradientUnits="userSpaceOnUse">
<stop stop-color="#E14640"/>
<stop offset="1" stop-color="#E14640" stop-opacity="0.17"/>
</linearGradient>
</defs>
</svg>
