<svg width="506" height="198" viewBox="0 0 506 198" fill="none" xmlns="http://www.w3.org/2000/svg">
<g style="mix-blend-mode:multiply" opacity="0.1">
<path d="M718.508 101.698L723 103.184V198H0V11.4174L4.48386 24.5091L8.97576 28.9851L13.4677 21.5016L17.9595 6.05682L22.4514 1.91699L26.9433 11.152L31.4352 31.5327L35.9271 55.0802L40.419 48.6405L44.9109 66.8451L49.4028 85.8282L53.8947 53.0811L58.3866 22.5985L62.8785 31.1789L67.3704 41.2631L71.8623 39.1755L76.3542 35.2126L80.8461 45.1906L85.338 68.915L89.8299 67.482L94.3218 63.7668L98.8137 81.8653L103.306 52.2672L107.797 39.4055L112.289 46.0752L116.781 73.2141L121.273 65.9252L125.765 55.381L130.257 41.5992L134.749 35.4956L139.241 55.5933L143.733 30.542L148.225 32.665L152.716 49.1712L157.208 43.3861L161.7 43.1561L166.192 50.6573L170.684 34.7526L175.176 38.9455L179.668 59.5385L184.16 70.7373L188.652 56.4425L193.143 43.2976L197.635 70.0827L202.127 81.2991L206.619 80.5207L211.111 46.0044L215.603 56.9555L220.095 62.0861L224.587 96.797L229.079 116.806L233.571 58.8131L238.062 47.6674L242.554 72.4357L247.046 54.6202L251.538 69.8173L256.03 77.7077L260.522 85.5097L265.014 83.1037L269.506 45.4737L273.998 58.5124L278.49 54.1249L282.981 52.4972L287.473 59.8392L291.965 41.9177L296.457 48.1451L300.949 52.1611L305.441 48.1097L309.933 57.1324L314.238 53.771L318.729 48.9943L323.221 49.4897L327.713 60.6354L332.205 47.4198L336.697 62.3691L341.189 54.7264L345.681 59.2024L350.173 44.9429L354.665 40.3608L359.156 67.0043L363.648 64.4744L368.14 65.9428L372.632 53.5941L377.124 62.723L381.616 55.8763L386.108 69.0389L390.6 67.5528L395.092 81.0338L399.584 78.15L404.075 80.8745L408.567 52.798L413.059 50.9404L417.551 75.3548L422.043 57.2209L426.535 83.8113L431.027 61.5023L435.519 55.2394L440.011 63.3776L444.502 63.8552L448.994 67.3582L453.486 84.6782L457.978 123.14L462.47 114.082L466.962 52.0019L471.454 80.9276L475.946 59.6269L480.438 72.5595L484.93 58.3001L489.421 67.4466L493.913 87.1727L498.405 93.2587L502.897 92.7633L507.389 91.9849L511.881 80.7153L516.373 99.7868L520.865 74.1871L525.357 96.1778L529.849 78.84L534.34 67.3228L538.832 119.761L543.324 135.825L547.816 140.584L552.308 125.563L556.8 110.366L561.292 91.6841L565.784 109.216L570.276 104.281L574.768 110.862L579.259 98.4423L583.751 107.43L588.243 80.5561L592.735 74.3464L597.227 103.237L601.719 135.382L606.211 91.7372L610.703 104.687L615.195 92.0379L619.686 77.5485L624.178 121.972L628.67 112.153L633.162 94.5855L637.654 121.477L642.146 124.414L646.638 131.26L651.13 135.825L655.622 94.2671L660.113 99.6984L664.605 132.587L669.097 106.174L673.589 99.0084L678.081 120.893L682.573 128.43L687.065 88.9419L691.557 103.944L696.049 107.607L700.541 99.6453L705.032 102.405L709.524 121.689L714.016 119.831L718.508 101.698Z" fill="url(#paint0_linear_353_12111)"/>
</g>
<path d="M723 103.184L718.508 101.698L714.016 119.831L709.524 121.689L705.032 102.405L700.541 99.6453L696.049 107.607L691.557 103.944L687.065 88.9419L682.573 128.43L678.081 120.893L673.589 99.0084L669.097 106.174L664.605 132.587L660.113 99.6984L655.622 94.2671L651.13 135.825L646.638 131.26L642.146 124.414L637.654 121.477L633.162 94.5855L628.67 112.153L624.178 121.972L619.686 77.5485L615.195 92.0379L610.703 104.687L606.211 91.7372L601.719 135.382L597.227 103.237L592.735 74.3464L588.243 80.5561L583.751 107.43L579.259 98.4423L574.767 110.862L570.276 104.281L565.784 109.216L561.292 91.6841L556.8 110.366L552.308 125.563L547.816 140.584L543.324 135.825L538.832 119.761L534.34 67.3228L529.849 78.84L525.357 96.1778L520.865 74.1871L516.373 99.7868L511.881 80.7153L507.389 91.9849L502.897 92.7633L498.405 93.2587L493.913 87.1727L489.421 67.4466L484.93 58.3001L480.438 72.5595L475.946 59.6269L471.454 80.9276L466.962 52.0019L462.47 114.082L457.978 123.14L453.486 84.6782L448.994 67.3582L444.502 63.8552L440.011 63.3776L435.519 55.2394L431.027 61.5023L426.535 83.8113L422.043 57.2209L417.551 75.3548L413.059 50.9404L408.567 52.798L404.075 80.8745L399.584 78.15L395.092 81.0338L390.6 67.5528L386.108 69.0389L381.616 55.8763L377.124 62.723L372.632 53.5941L368.14 65.9428L363.648 64.4744L359.156 67.0043L354.665 40.3608L350.173 44.9429L345.681 59.2024L341.189 54.7264L336.697 62.3691L332.205 47.4198L327.713 60.6354L323.221 49.4897L318.729 48.9943L314.238 53.771L309.933 57.1324L305.441 48.1097L300.949 52.1611L296.457 48.1451L291.965 41.9177L287.473 59.8392L282.981 52.4972L278.49 54.1249L273.998 58.5124L269.506 45.4737L265.014 83.1037L260.522 85.5097L256.03 77.7077L251.538 69.8173L247.046 54.6202L242.554 72.4357L238.062 47.6674L233.571 58.8131L229.079 116.806L224.587 96.797L220.095 62.0861L215.603 56.9555L211.111 46.0044L206.619 80.5207L202.127 81.2991L197.635 70.0827L193.143 43.2976L188.652 56.4425L184.16 70.7373L179.668 59.5385L175.176 38.9455L170.684 34.7526L166.192 50.6573L161.7 43.1561L157.208 43.3861L152.716 49.1712L148.225 32.665L143.733 30.542L139.241 55.5933L134.749 35.4956L130.257 41.5992L125.765 55.381L121.273 65.9252L116.781 73.2141L112.289 46.0752L107.797 39.4055L103.306 52.2672L98.8137 81.8653L94.3218 63.7668L89.8299 67.482L85.338 68.915L80.8461 45.1906L76.3542 35.2126L71.8623 39.1755L67.3704 41.2631L62.8785 31.1789L58.3866 22.5985L53.8947 53.0811L49.4028 85.8282L44.9109 66.8451L40.419 48.6405L35.9271 55.0802L31.4352 31.5327L26.9433 11.152L22.4514 1.91699L17.9595 6.05682L13.4677 21.5016L8.97576 28.9851L4.48386 24.5091L0 11.4174" stroke="#80B539" stroke-width="2" stroke-linecap="round" stroke-linejoin="round"/>
<defs>
<linearGradient id="paint0_linear_353_12111" x1="361.5" y1="1.91699" x2="361.5" y2="189.271" gradientUnits="userSpaceOnUse">
<stop stop-color="#80B539"/>
<stop offset="1" stop-color="#E4F2D1"/>
</linearGradient>
</defs>
</svg>
