<svg width="72" height="71" viewBox="0 0 72 71" fill="none" xmlns="http://www.w3.org/2000/svg">
<mask id="mask0_3235_18893" style="mask-type:alpha" maskUnits="userSpaceOnUse" x="0" y="0" width="72" height="71">
<rect x="70.6001" y="69.5015" width="69" height="69" transform="rotate(179.828 70.6001 69.5015)" fill="#D9D9D9" stroke="black"/>
</mask>
<g mask="url(#mask0_3235_18893)">
<path d="M48.0901 11.7368L48.0886 11.2368L47.5886 11.2383L24.2553 11.3083L23.7553 11.3098L23.7568 11.8098L23.7831 20.5598C23.7931 23.9017 24.9975 26.7715 27.3823 29.1421C29.7672 31.5127 32.6442 32.6999 35.9861 32.6899C39.3281 32.6799 42.1979 31.4755 44.5685 29.0906C46.9391 26.7058 48.1263 23.8288 48.1163 20.4868L48.0901 11.7368ZM58.7552 11.2049L53.4219 11.2209L52.9219 11.2224L52.9234 11.7224L52.9496 20.4723C52.9582 23.3561 52.2931 26.0607 50.9531 28.5936L50.953 28.5937C49.6169 31.1209 47.7515 33.1389 45.3513 34.655L44.6776 35.0805L45.3539 35.502C47.763 37.0036 49.6405 39.0113 50.9917 41.5323L50.992 41.5327C52.347 44.0555 53.0284 46.7551 53.037 49.6388L53.0633 58.3888L53.0648 58.8888L53.5648 58.8873L58.8981 58.8713L58.9126 63.7046L13.2461 63.8415L13.2316 59.0082L18.5649 58.9922L19.0649 58.9907L19.0634 58.4907L19.0372 49.7408C19.0285 46.8569 19.6928 44.1532 21.0309 41.6223C22.3689 39.0931 24.2354 37.0741 26.6355 35.5581L27.3092 35.1326L26.6329 34.7111C24.2238 33.2095 22.3453 31.2027 20.9921 28.6837C19.6388 26.1588 18.9584 23.4581 18.9497 20.5742L18.9235 11.8243L18.922 11.3243L18.422 11.3258L13.0887 11.3418L13.0742 6.50847L58.7407 6.37156L58.7552 11.2049Z" fill="#C8DFAA" stroke="#00303E"/>
</g>
</svg>
