<svg width="18" height="19" viewBox="0 0 18 19" fill="none" xmlns="http://www.w3.org/2000/svg">
<path d="M2.2 18.625C1.68333 18.625 1.25 18.45 0.9 18.1C0.55 17.75 0.375 17.3167 0.375 16.8V12.925L3.375 9.54999L4.425 10.625L2 13.375H16L13.625 10.675L14.675 9.59999L17.625 12.925V16.8C17.625 17.3167 17.45 17.75 17.1 18.1C16.75 18.45 16.3167 18.625 15.8 18.625H2.2ZM2.2 17.125H15.8C15.8833 17.125 15.9583 17.0917 16.025 17.025C16.0917 16.9583 16.125 16.8833 16.125 16.8V14.875H1.875V16.8C1.875 16.8833 1.90833 16.9583 1.975 17.025C2.04167 17.0917 2.11667 17.125 2.2 17.125ZM7.75 11.15L4.5 7.87499C4.15 7.52499 3.97933 7.09999 3.988 6.59999C3.996 6.09999 4.175 5.67499 4.525 5.32499L9.175 0.674987C9.525 0.324987 9.95 0.145654 10.45 0.136987C10.95 0.128987 11.375 0.299987 11.725 0.649987L15 3.89999C15.35 4.24999 15.5293 4.67065 15.538 5.16199C15.546 5.65399 15.375 6.08332 15.025 6.44999L10.3 11.15C9.95 11.5 9.525 11.675 9.025 11.675C8.525 11.675 8.1 11.5 7.75 11.15ZM13.925 5.39999C13.975 5.34999 14 5.27932 14 5.18799C14 5.09599 13.975 5.02499 13.925 4.97499L10.675 1.72499C10.625 1.67499 10.5543 1.64999 10.463 1.64999C10.371 1.64999 10.3 1.67499 10.25 1.72499L5.575 6.39999C5.525 6.44999 5.5 6.52099 5.5 6.61299C5.5 6.70432 5.525 6.77499 5.575 6.82499L8.825 10.075C8.875 10.125 8.946 10.15 9.038 10.15C9.12933 10.15 9.2 10.125 9.25 10.075L13.925 5.39999Z" fill="#1C1B1F"/>
</svg>
