<svg width="20" height="10" viewBox="0 0 20 10" fill="none" xmlns="http://www.w3.org/2000/svg">
<path d="M8.62187 9.07578H4.99687C3.86354 9.07578 2.90121 8.67978 2.10987 7.88778C1.31787 7.09645 0.921875 6.13411 0.921875 5.00078C0.921875 3.86745 1.31787 2.90511 2.10987 2.11378C2.90121 1.32178 3.86354 0.925781 4.99687 0.925781H8.62187V1.92578H4.99687C4.14687 1.92578 3.42188 2.22578 2.82187 2.82578C2.22187 3.42578 1.92188 4.15078 1.92188 5.00078C1.92188 5.85078 2.22187 6.57578 2.82187 7.17578C3.42188 7.77578 4.14687 8.07578 4.99687 8.07578H8.62187V9.07578ZM6.49687 5.50078V4.50078H13.4969V5.50078H6.49687ZM11.3719 9.07578V8.07578H14.9969C15.8469 8.07578 16.5719 7.77578 17.1719 7.17578C17.7719 6.57578 18.0719 5.85078 18.0719 5.00078C18.0719 4.15078 17.7719 3.42578 17.1719 2.82578C16.5719 2.22578 15.8469 1.92578 14.9969 1.92578H11.3719V0.925781H14.9969C16.1302 0.925781 17.0929 1.32178 17.8849 2.11378C18.6762 2.90511 19.0719 3.86745 19.0719 5.00078C19.0719 6.13411 18.6762 7.09645 17.8849 7.88778C17.0929 8.67978 16.1302 9.07578 14.9969 9.07578H11.3719Z" fill="#101010"/>
</svg>
