<svg width="29" height="28" viewBox="0 0 29 28" fill="none" xmlns="http://www.w3.org/2000/svg">
<mask id="mask0_398_10798" style="mask-type:alpha" maskUnits="userSpaceOnUse" x="0" y="0" width="29" height="28">
<rect x="0.5" width="28" height="28" fill="#D9D9D9"/>
</mask>
<g mask="url(#mask0_398_10798)">
<mask id="mask1_398_10798" style="mask-type:alpha" maskUnits="userSpaceOnUse" x="2" y="2" width="25" height="24">
<rect x="2.5" y="2" width="24" height="24" fill="#D9D9D9"/>
</mask>
<g mask="url(#mask1_398_10798)">
<path d="M14.475 20.8077C14.657 20.8077 14.8163 20.7394 14.9529 20.6029C15.0894 20.4663 15.1577 20.307 15.1577 20.125V19.5961C15.9333 19.491 16.6355 19.1996 17.2644 18.7221C17.8932 18.2445 18.2077 17.5205 18.2077 16.55C18.2077 15.85 18.0012 15.2308 17.5884 14.6923C17.1756 14.1538 16.3692 13.6679 15.1692 13.2346C14.1179 12.8756 13.4198 12.5647 13.075 12.3019C12.7301 12.0391 12.5577 11.6718 12.5577 11.2C12.5577 10.7282 12.7343 10.3448 13.0875 10.05C13.4407 9.75509 13.9282 9.60765 14.55 9.60765C14.9218 9.60765 15.2471 9.6772 15.526 9.8163C15.8048 9.95542 16.0404 10.141 16.2327 10.3731C16.3545 10.5218 16.4955 10.6256 16.6558 10.6846C16.816 10.7435 16.9678 10.741 17.1111 10.6769C17.3065 10.6 17.4401 10.4686 17.5117 10.2827C17.5834 10.0968 17.5654 9.92626 17.4577 9.77113C17.191 9.39421 16.8602 9.08043 16.4654 8.8298C16.0705 8.57915 15.6512 8.43716 15.2077 8.40383V7.87498C15.2077 7.69293 15.1394 7.53363 15.0029 7.3971C14.8663 7.26057 14.707 7.1923 14.525 7.1923C14.3429 7.1923 14.1836 7.26057 14.0471 7.3971C13.9106 7.53363 13.8423 7.69293 13.8423 7.87498V8.40383C12.9897 8.56792 12.3349 8.91376 11.8779 9.44133C11.4208 9.96889 11.1923 10.5551 11.1923 11.2C11.1923 11.9513 11.4199 12.5557 11.875 13.0134C12.3301 13.4711 13.0718 13.8846 14.1 14.2538C15.1628 14.6436 15.8888 14.9932 16.2779 15.3029C16.667 15.6125 16.8615 16.0282 16.8615 16.55C16.8615 17.1769 16.6352 17.6324 16.1827 17.9163C15.7301 18.2003 15.2192 18.3423 14.65 18.3423C14.175 18.3423 13.7456 18.2237 13.362 17.9865C12.9783 17.7493 12.657 17.4064 12.398 16.9577C12.2968 16.782 12.1602 16.6638 11.9884 16.6029C11.8166 16.542 11.6485 16.5439 11.4839 16.6087C11.3066 16.6735 11.1769 16.7965 11.0946 16.9779C11.0123 17.1593 11.0115 17.3327 11.0923 17.4981C11.3718 18.0583 11.7365 18.5064 12.1865 18.8423C12.6365 19.1782 13.1718 19.4128 13.7923 19.5461V20.125C13.7923 20.307 13.8606 20.4663 13.9971 20.6029C14.1336 20.7394 14.2929 20.8077 14.475 20.8077ZM14.5016 23.5C13.1877 23.5 11.9527 23.2506 10.7966 22.752C9.6404 22.2533 8.63472 21.5765 7.7795 20.7217C6.92427 19.8669 6.24721 18.8616 5.74833 17.706C5.24944 16.5504 5 15.3156 5 14.0017C5 12.6877 5.24933 11.4527 5.748 10.2966C6.24667 9.1404 6.92342 8.13472 7.77825 7.2795C8.6331 6.42427 9.63834 5.74721 10.794 5.24833C11.9496 4.74944 13.1844 4.5 14.4983 4.5C15.8122 4.5 17.0473 4.74933 18.2034 5.248C19.3596 5.74667 20.3652 6.42342 21.2205 7.27825C22.0757 8.1331 22.7527 9.13834 23.2516 10.294C23.7505 11.4496 24 12.6844 24 13.9983C24 15.3122 23.7506 16.5473 23.252 17.7034C22.7533 18.8596 22.0765 19.8652 21.2217 20.7205C20.3669 21.5757 19.3616 22.2527 18.206 22.7516C17.0504 23.2505 15.8156 23.5 14.5016 23.5Z" fill="#707070"/>
</g>
</g>
</svg>
