<svg width="24" height="24" viewBox="0 0 24 24" fill="none" xmlns="http://www.w3.org/2000/svg">
<mask id="mask0_2564_14407" style="mask-type:alpha" maskUnits="userSpaceOnUse" x="0" y="0" width="24" height="24">
<rect width="24" height="24" fill="#D9D9D9"/>
</mask>
<g mask="url(#mask0_2564_14407)">
<path d="M5 18.8758C4.78333 18.8758 4.60433 18.8008 4.463 18.6508C4.321 18.5008 4.25 18.3258 4.25 18.1258C4.25 17.9091 4.321 17.7298 4.463 17.5878C4.60433 17.4464 4.78333 17.3758 5 17.3758H6.25V10.1258C6.25 8.79245 6.66667 7.59645 7.5 6.53778C8.33333 5.47978 9.41667 4.80078 10.75 4.50078V3.80078C10.75 3.45078 10.871 3.15478 11.113 2.91278C11.3543 2.67145 11.65 2.55078 12 2.55078C12.35 2.55078 12.6457 2.67145 12.887 2.91278C13.129 3.15478 13.25 3.45078 13.25 3.80078V4.50078C14.5833 4.80078 15.6667 5.47978 16.5 6.53778C17.3333 7.59645 17.75 8.79245 17.75 10.1258V17.3758H19C19.2167 17.3758 19.396 17.4464 19.538 17.5878C19.6793 17.7298 19.75 17.9091 19.75 18.1258C19.75 18.3258 19.6793 18.5008 19.538 18.6508C19.396 18.8008 19.2167 18.8758 19 18.8758H5ZM12 21.8008C11.5 21.8008 11.075 21.6258 10.725 21.2758C10.375 20.9258 10.2 20.5008 10.2 20.0008H13.8C13.8 20.5008 13.625 20.9258 13.275 21.2758C12.925 21.6258 12.5 21.8008 12 21.8008ZM7.75 17.3758H16.25V10.1258C16.25 8.94245 15.8333 7.93812 15 7.11278C14.1667 6.28811 13.1667 5.87578 12 5.87578C10.8333 5.87578 9.83333 6.28811 9 7.11278C8.16667 7.93812 7.75 8.94245 7.75 10.1258V17.3758Z" fill="white"/>
</g>
</svg>
