<svg width="58" height="63" viewBox="0 0 58 63" fill="none" xmlns="http://www.w3.org/2000/svg">
<path d="M43.75 62.1914C39.8438 62.1914 36.524 60.8247 33.7906 58.0914C31.0552 55.356 29.6875 52.0352 29.6875 48.1289C29.6875 44.2227 31.0552 40.9018 33.7906 38.1664C36.524 35.4331 39.8438 34.0664 43.75 34.0664C47.6562 34.0664 50.9771 35.4331 53.7125 38.1664C56.4458 40.9018 57.8125 44.2227 57.8125 48.1289C57.8125 52.0352 56.4458 55.356 53.7125 58.0914C50.9771 60.8247 47.6562 62.1914 43.75 62.1914ZM48.9062 55.3164L50.8594 53.3633L45.0781 47.582V38.9102H42.3437V48.6758L48.9062 55.3164ZM6.5625 59.0664C5 59.0664 3.67188 58.5195 2.57813 57.4258C1.48438 56.332 0.9375 55.0039 0.9375 53.4414V11.5664C0.9375 10.0039 1.48438 8.67578 2.57813 7.58203C3.67188 6.48828 5 5.94141 6.5625 5.94141H20.3906C20.8073 4.43099 21.6792 3.16745 23.0062 2.15078C24.3354 1.1362 25.8333 0.628906 27.5 0.628906C29.2187 0.628906 30.7427 1.1362 32.0719 2.15078C33.399 3.16745 34.2708 4.43099 34.6875 5.94141H48.4375C50 5.94141 51.3281 6.48828 52.4219 7.58203C53.5156 8.67578 54.0625 10.0039 54.0625 11.5664V30.7852C53.3333 30.3164 52.5917 29.9122 51.8375 29.5727C51.0812 29.2352 50.2604 28.9102 49.375 28.5977V11.5664C49.375 11.306 49.2844 11.0852 49.1031 10.9039C48.9198 10.7206 48.6979 10.6289 48.4375 10.6289H41.5625V18.832H13.4375V10.6289H6.5625C6.30208 10.6289 6.08125 10.7206 5.9 10.9039C5.71667 11.0852 5.625 11.306 5.625 11.5664V53.4414C5.625 53.7018 5.71667 53.9237 5.9 54.107C6.08125 54.2883 6.30208 54.3789 6.5625 54.3789H24.4531C24.7135 55.2643 25.0125 56.0852 25.35 56.8414C25.6896 57.5956 26.1198 58.3372 26.6406 59.0664H6.5625ZM27.5 11.0195C28.2812 11.0195 28.9448 10.7456 29.4906 10.1977C30.0385 9.65182 30.3125 8.96224 30.3125 8.12891C30.3125 7.34766 30.0385 6.68307 29.4906 6.13516C28.9448 5.58932 28.2812 5.31641 27.5 5.31641C26.7187 5.31641 26.0552 5.58932 25.5094 6.13516C24.9615 6.68307 24.6875 7.34766 24.6875 8.12891C24.6875 8.96224 24.9615 9.65182 25.5094 10.1977C26.0552 10.7456 26.7187 11.0195 27.5 11.0195Z" fill="#F7941D"/>
</svg>
