<svg width="164" height="164" viewBox="0 0 164 164" fill="none" xmlns="http://www.w3.org/2000/svg">
<rect x="0.5" y="0.5" width="163" height="163" rx="7.5" fill="white"/>
<path d="M106.915 89.5205C106.923 89.2641 106.838 89.0136 106.676 88.8147C106.514 88.6158 106.286 88.4818 106.034 88.4372C104.475 88.2266 103.045 87.4577 102.009 86.2732C100.974 85.0887 100.404 83.5689 100.404 81.9957C100.404 80.4225 100.974 78.9027 102.009 77.7181C103.045 76.5336 104.475 75.7648 106.034 75.5542C106.286 75.51 106.515 75.3761 106.677 75.1771C106.839 74.9781 106.923 74.7273 106.915 74.4708V66.8333C106.915 66.546 106.801 66.2705 106.598 66.0673C106.395 65.8641 106.119 65.75 105.832 65.75H58.1654C57.878 65.75 57.6025 65.8641 57.3993 66.0673C57.1962 66.2705 57.082 66.546 57.082 66.8333V74.4947C57.0825 74.755 57.1767 75.0064 57.3474 75.203C57.5181 75.3995 57.7539 75.528 58.0115 75.565C59.5609 75.7858 60.9786 76.5582 62.0043 77.7403C63.0299 78.9225 63.5946 80.435 63.5946 82C63.5946 83.565 63.0299 85.0776 62.0043 86.2597C60.9786 87.4418 59.5609 88.2142 58.0115 88.435C57.7539 88.472 57.5181 88.6005 57.3474 88.797C57.1767 88.9936 57.0825 89.245 57.082 89.5053V97.1667C57.082 97.454 57.1962 97.7295 57.3993 97.9327C57.6025 98.1359 57.878 98.25 58.1654 98.25H105.832C106.119 98.25 106.395 98.1359 106.598 97.9327C106.801 97.7295 106.915 97.454 106.915 97.1667V89.5205Z" fill="#80B539" fill-opacity="0.17"/>
<path d="M100.415 82C100.415 80.4286 100.984 78.9102 102.017 77.7259C103.05 76.5417 104.477 75.7717 106.034 75.5585C106.286 75.5143 106.515 75.3804 106.677 75.1814C106.839 74.9824 106.923 74.7316 106.915 74.4752V66.8333C106.915 66.546 106.801 66.2705 106.598 66.0673C106.395 65.8641 106.119 65.75 105.832 65.75H58.1654C57.878 65.75 57.6025 65.8641 57.3993 66.0673C57.1962 66.2705 57.082 66.546 57.082 66.8333V74.4947C57.0825 74.755 57.1767 75.0064 57.3474 75.203C57.5181 75.3995 57.7539 75.528 58.0115 75.565C59.5586 75.7885 60.9734 76.5621 61.9965 77.744C63.0196 78.9259 63.5825 80.4368 63.582 82H100.415Z" fill="#E4F2D1"/>
<path d="M106.915 89.5205C106.923 89.2641 106.838 89.0136 106.676 88.8147C106.514 88.6158 106.286 88.4818 106.034 88.4372C104.475 88.2266 103.045 87.4577 102.009 86.2732C100.974 85.0887 100.404 83.5689 100.404 81.9957C100.404 80.4225 100.974 78.9027 102.009 77.7181C103.045 76.5336 104.475 75.7648 106.034 75.5542C106.286 75.51 106.515 75.3761 106.677 75.1771C106.839 74.9781 106.923 74.7273 106.915 74.4708V66.8333C106.915 66.546 106.801 66.2705 106.598 66.0673C106.395 65.8641 106.119 65.75 105.832 65.75H58.1654C57.878 65.75 57.6025 65.8641 57.3993 66.0673C57.1962 66.2705 57.082 66.546 57.082 66.8333V74.4947C57.0825 74.755 57.1767 75.0064 57.3474 75.203C57.5181 75.3995 57.7539 75.528 58.0115 75.565C59.5609 75.7858 60.9786 76.5582 62.0043 77.7403C63.0299 78.9225 63.5946 80.435 63.5946 82C63.5946 83.565 63.0299 85.0776 62.0043 86.2597C60.9786 87.4418 59.5609 88.2142 58.0115 88.435C57.7539 88.472 57.5181 88.6005 57.3474 88.797C57.1767 88.9936 57.0825 89.245 57.082 89.5053V97.1667C57.082 97.454 57.1962 97.7295 57.3993 97.9327C57.6025 98.1359 57.878 98.25 58.1654 98.25H105.832C106.119 98.25 106.395 98.1359 106.598 97.9327C106.801 97.7295 106.915 97.454 106.915 97.1667V89.5205Z" stroke="#014342" stroke-linecap="round" stroke-linejoin="round"/>
<path d="M88.4987 72.25H71.1654C70.5671 72.25 70.082 72.735 70.082 73.3333V90.6667C70.082 91.265 70.5671 91.75 71.1654 91.75H88.4987C89.097 91.75 89.582 91.265 89.582 90.6667V73.3333C89.582 72.735 89.097 72.25 88.4987 72.25Z" fill="#E4F2D1" stroke="#014342" stroke-linecap="round" stroke-linejoin="round"/>
<path d="M76.582 78.75H83.082" stroke="#014342" stroke-linecap="round" stroke-linejoin="round"/>
<path d="M76.582 85.25H83.082" stroke="#014342" stroke-linecap="round" stroke-linejoin="round"/>
<path d="M96.625 70.625C96.7687 70.625 96.9064 70.6821 97.008 70.7837C97.1096 70.8852 97.1667 71.023 97.1667 71.1667" stroke="#014342" stroke-linecap="round" stroke-linejoin="round"/>
<path d="M96.082 71.1667C96.082 71.023 96.1391 70.8852 96.2407 70.7837C96.3423 70.6821 96.48 70.625 96.6237 70.625" stroke="#014342" stroke-linecap="round" stroke-linejoin="round"/>
<path d="M96.6237 71.7077C96.48 71.7077 96.3423 71.6506 96.2407 71.549C96.1391 71.4475 96.082 71.3097 96.082 71.166" stroke="#014342" stroke-linecap="round" stroke-linejoin="round"/>
<path d="M97.1667 71.166C97.1667 71.3097 97.1096 71.4475 97.008 71.549C96.9064 71.6506 96.7687 71.7077 96.625 71.7077" stroke="#014342" stroke-linecap="round" stroke-linejoin="round"/>
<path d="M96.625 77.125C96.7687 77.125 96.9064 77.1821 97.008 77.2837C97.1096 77.3852 97.1667 77.523 97.1667 77.6667" stroke="#014342" stroke-linecap="round" stroke-linejoin="round"/>
<path d="M96.082 77.6667C96.082 77.523 96.1391 77.3852 96.2407 77.2837C96.3423 77.1821 96.48 77.125 96.6237 77.125" stroke="#014342" stroke-linecap="round" stroke-linejoin="round"/>
<path d="M96.6237 78.2077C96.48 78.2077 96.3423 78.1506 96.2407 78.049C96.1391 77.9475 96.082 77.8097 96.082 77.666" stroke="#014342" stroke-linecap="round" stroke-linejoin="round"/>
<path d="M97.1667 77.666C97.1667 77.8097 97.1096 77.9475 97.008 78.049C96.9064 78.1506 96.7687 78.2077 96.625 78.2077" stroke="#014342" stroke-linecap="round" stroke-linejoin="round"/>
<path d="M96.625 85.791C96.7687 85.791 96.9064 85.8481 97.008 85.9497C97.1096 86.0512 97.1667 86.189 97.1667 86.3327" stroke="#014342" stroke-linecap="round" stroke-linejoin="round"/>
<path d="M96.082 86.3327C96.082 86.189 96.1391 86.0512 96.2407 85.9497C96.3423 85.8481 96.48 85.791 96.6237 85.791" stroke="#014342" stroke-linecap="round" stroke-linejoin="round"/>
<path d="M96.6237 86.8757C96.48 86.8757 96.3423 86.8186 96.2407 86.717C96.1391 86.6154 96.082 86.4776 96.082 86.334" stroke="#014342" stroke-linecap="round" stroke-linejoin="round"/>
<path d="M97.1667 86.334C97.1667 86.4776 97.1096 86.6154 97.008 86.717C96.9064 86.8186 96.7687 86.8757 96.625 86.8757" stroke="#014342" stroke-linecap="round" stroke-linejoin="round"/>
<path d="M96.625 92.291C96.7687 92.291 96.9064 92.3481 97.008 92.4497C97.1096 92.5512 97.1667 92.689 97.1667 92.8327" stroke="#014342" stroke-linecap="round" stroke-linejoin="round"/>
<path d="M96.082 92.8327C96.082 92.689 96.1391 92.5512 96.2407 92.4497C96.3423 92.3481 96.48 92.291 96.6237 92.291" stroke="#014342" stroke-linecap="round" stroke-linejoin="round"/>
<path d="M96.6237 93.3757C96.48 93.3757 96.3423 93.3186 96.2407 93.217C96.1391 93.1154 96.082 92.9776 96.082 92.834" stroke="#014342" stroke-linecap="round" stroke-linejoin="round"/>
<path d="M97.1667 92.834C97.1667 92.9776 97.1096 93.1154 97.008 93.217C96.9064 93.3186 96.7687 93.3757 96.625 93.3757" stroke="#014342" stroke-linecap="round" stroke-linejoin="round"/>
<rect x="0.5" y="0.5" width="163" height="163" rx="7.5" stroke="#CDCDCD"/>
</svg>
