<svg width="18" height="18" viewBox="0 0 18 18" fill="none" xmlns="http://www.w3.org/2000/svg">
<path d="M9.21875 13.8914C9.45208 13.8914 9.64375 13.8164 9.79375 13.6664C9.94375 13.5164 10.0188 13.3247 10.0188 13.0914C10.0188 12.8581 9.94375 12.6664 9.79375 12.5164C9.64375 12.3664 9.45208 12.2914 9.21875 12.2914C8.98542 12.2914 8.79375 12.3664 8.64375 12.5164C8.49375 12.6664 8.41875 12.8581 8.41875 13.0914C8.41875 13.3247 8.49375 13.5164 8.64375 13.6664C8.79375 13.8164 8.98542 13.8914 9.21875 13.8914ZM8.46875 10.4164H9.96875V4.39141H8.46875V10.4164ZM5.66875 17.6914L0.71875 12.7414V5.64141L5.66875 0.691406H12.7688L17.7188 5.64141V12.7414L12.7688 17.6914H5.66875ZM6.31875 16.1914H12.1187L16.2188 12.0914V6.29141L12.1187 2.19141H6.31875L2.21875 6.29141V12.0914L6.31875 16.1914Z" fill="#FF5F57"/>
</svg>
