<svg width="16" height="16" viewBox="0 0 16 16" fill="none" xmlns="http://www.w3.org/2000/svg">
<path d="M0.325 15.6742V14.1742H3.25L2.525 13.4742C1.70833 12.7076 1.125 11.8532 0.775 10.9112C0.425 9.96988 0.25 9.02422 0.25 8.07422C0.25 6.34089 0.754333 4.79089 1.763 3.42422C2.771 2.05755 4.1 1.11589 5.75 0.599219V2.17422C4.55 2.64089 3.58333 3.41189 2.85 4.48722C2.11667 5.56189 1.75 6.75755 1.75 8.07422C1.75 8.85755 1.9 9.61589 2.2 10.3492C2.5 11.0826 2.95833 11.7659 3.575 12.3992L4.2 13.0242V10.2992H5.7V15.6742H0.325ZM10.25 15.3992V13.8242C11.45 13.3576 12.4167 12.5866 13.15 11.5112C13.8833 10.4366 14.25 9.24089 14.25 7.92422C14.25 7.14089 14.1 6.38255 13.8 5.64922C13.5 4.91588 13.0417 4.23255 12.425 3.59922L11.8 2.97422V5.69922H10.3V0.324219H15.675V1.82422H12.75L13.475 2.52422C14.275 3.30755 14.854 4.16589 15.212 5.09922C15.5707 6.03255 15.75 6.97422 15.75 7.92422C15.75 9.65755 15.246 11.2076 14.238 12.5742C13.2293 13.9409 11.9 14.8826 10.25 15.3992Z" fill="#101010"/>
</svg>
