<svg width="73" height="72" viewBox="0 0 73 72" fill="none" xmlns="http://www.w3.org/2000/svg">
<path d="M65.1971 53.8356C65.4052 53.4192 65.5135 52.9601 65.5135 52.4946C65.5135 52.0291 65.4052 51.57 65.1971 51.1536L63.6491 48.0516C63.4135 47.5794 63.3067 47.0534 63.3393 46.5267C63.372 45.9999 63.543 45.4911 63.8351 45.0516L64.7591 43.6656C65.0881 43.1726 65.2636 42.5933 65.2636 42.0006C65.2636 41.408 65.0881 40.8286 64.7591 40.3356L62.8691 37.5006H38.3141L36.4211 25.1406L33.0071 27.4146C31.9301 28.1338 31.0214 29.0774 30.3431 30.1806L20.4431 46.2636C19.7456 47.396 18.6897 48.2629 17.4431 48.7266L7.36914 52.5006V67.5006C7.36914 68.2963 7.68521 69.0593 8.24782 69.6219C8.81043 70.1846 9.57349 70.5006 10.3691 70.5006H28.3691L34.2701 68.1426C35.3304 67.7192 36.4615 67.5013 37.6031 67.5006H59.8691L63.0551 64.3056C63.4496 63.9122 63.7268 63.4167 63.8556 62.8747C63.9843 62.3326 63.9596 61.7654 63.7841 61.2366L63.2591 59.6736C63.0086 58.9189 63.0679 58.0956 63.4241 57.3846L65.1971 53.8356Z" fill="#C8DFAA"/>
<path d="M63.2621 59.6739C63.2406 59.565 63.2266 59.4547 63.2201 59.3439C38.5301 61.7439 19.0841 56.6259 34.0601 26.7129L33.0071 27.4179C31.9295 28.1351 31.0206 29.0778 30.3431 30.1809L20.4431 46.2639C19.7437 47.3946 18.6884 48.261 17.4431 48.7269L7.36914 52.5009V67.5009C7.36914 68.2965 7.68521 69.0596 8.24782 69.6222C8.81043 70.1848 9.57349 70.5009 10.3691 70.5009H28.3691L34.2701 68.1429C35.3304 67.7194 36.4615 67.5016 37.6031 67.5009H59.8691L63.0581 64.3059C63.4521 63.9122 63.7287 63.4165 63.8569 62.8745C63.9852 62.3324 63.96 61.7654 63.7841 61.2369L63.2621 59.6739Z" fill="#C8DFAA"/>
<path d="M38.2694 37.5L33.1184 3.48002C33.0932 3.22897 33.121 2.97541 33.2001 2.7358C33.2792 2.49619 33.4078 2.27589 33.5775 2.08919C33.7472 1.90249 33.9543 1.75355 34.1853 1.65205C34.4163 1.55055 34.6661 1.49876 34.9184 1.50002H59.6384C59.8973 1.50018 60.153 1.55617 60.3883 1.66416C60.6235 1.77216 60.8327 1.92963 61.0016 2.12583C61.1705 2.32203 61.295 2.55234 61.3668 2.80105C61.4385 3.04976 61.4558 3.31103 61.4174 3.56702L56.3204 37.5H38.2694Z" fill="#C8DFAA"/>
<path d="M37.3679 31.5L33.1259 3.222C33.0939 3.0085 33.1085 2.79062 33.1684 2.58324C33.2284 2.37587 33.3324 2.18388 33.4734 2.02039C33.6144 1.85691 33.789 1.72579 33.9853 1.63597C34.1816 1.54616 34.395 1.49978 34.6109 1.5H55.3679" stroke="#00303E" stroke-width="2" stroke-linecap="round" stroke-linejoin="round"/>
<path d="M44.8679 37.5L42.0329 9.15002C42.0119 8.9408 42.0351 8.72951 42.101 8.52983C42.1669 8.33016 42.274 8.14658 42.4155 7.99099C42.5569 7.83541 42.7295 7.71129 42.922 7.62671C43.1145 7.54213 43.3226 7.49896 43.5329 7.50002H64.1339C64.3495 7.50023 64.5626 7.54693 64.7585 7.63693C64.9545 7.72693 65.1287 7.85812 65.2694 8.02155C65.41 8.18498 65.5138 8.37682 65.5736 8.58398C65.6334 8.79115 65.6478 9.00877 65.6159 9.22202L61.3679 37.5" fill="#C8DFAA"/>
<path d="M37.3691 37.5H62.8691L64.7591 40.335C65.0881 40.828 65.2636 41.4074 65.2636 42C65.2636 42.5926 65.0881 43.172 64.7591 43.665L63.8351 45.051C63.543 45.4905 63.372 45.9993 63.3393 46.526C63.3067 47.0528 63.4135 47.5788 63.6491 48.051L65.2001 51.153C65.4082 51.5694 65.5165 52.0285 65.5165 52.494C65.5165 52.9595 65.4082 53.4186 65.2001 53.835L63.4241 57.384C63.0689 58.0954 63.0107 58.9187 63.2621 59.673L63.7841 61.236C63.96 61.7645 63.9852 62.3316 63.8569 62.8736C63.7287 63.4156 63.4521 63.9113 63.0581 64.305L59.8691 67.5H37.6031C36.4582 67.4999 35.3238 67.7188 34.2611 68.145L28.3691 70.5" stroke="#00303E" stroke-width="2" stroke-linecap="round" stroke-linejoin="round"/>
<path d="M7.36914 52.4997L17.4431 48.7227C18.6902 48.2537 19.7457 47.3829 20.4431 46.2477L30.3431 30.1767C31.0246 29.0722 31.9363 28.1277 33.0161 27.4077L36.4211 25.1367" stroke="#00303E" stroke-width="2" stroke-linecap="round" stroke-linejoin="round"/>
<path d="M64.1339 7.50002H43.5329C43.3226 7.49896 43.1145 7.54213 42.922 7.62671C42.7295 7.71129 42.5569 7.83541 42.4155 7.99099C42.274 8.14658 42.1669 8.33016 42.101 8.52983C42.0351 8.72951 42.0119 8.9408 42.0329 9.15002L44.0309 29.127L65.1929 7.96502C65.0559 7.82128 64.8918 7.70617 64.71 7.62635C64.5282 7.54652 64.3324 7.50359 64.1339 7.50002Z" fill="#C8DFAA"/>
<path d="M44.8679 37.5L42.0329 9.15002C42.0119 8.9408 42.0351 8.72951 42.101 8.52983C42.1669 8.33016 42.274 8.14658 42.4155 7.99099C42.5569 7.83541 42.7295 7.71129 42.922 7.62671C43.1145 7.54213 43.3226 7.49896 43.5329 7.50002H64.1339C64.3495 7.50023 64.5626 7.54693 64.7585 7.63693C64.9545 7.72693 65.1287 7.85812 65.2694 8.02155C65.41 8.18498 65.5138 8.37682 65.5736 8.58398C65.6334 8.79115 65.6478 9.00877 65.6159 9.22202L61.3679 37.5" stroke="#00303E" stroke-width="2" stroke-linecap="round" stroke-linejoin="round"/>
<path d="M53.1191 27C53.8608 27 54.5858 26.7801 55.2025 26.368C55.8192 25.956 56.2999 25.3703 56.5837 24.6851C56.8675 23.9998 56.9418 23.2458 56.7971 22.5184C56.6524 21.791 56.2952 21.1228 55.7708 20.5984C55.2463 20.0739 54.5782 19.7168 53.8507 19.5721C53.1233 19.4274 52.3693 19.5016 51.6841 19.7855C50.9989 20.0693 50.4132 20.5499 50.0011 21.1666C49.5891 21.7833 49.3691 22.5083 49.3691 23.25C49.3691 24.2446 49.7642 25.1984 50.4675 25.9017C51.1707 26.6049 52.1246 27 53.1191 27Z" fill="#80B539" stroke="#00303E" stroke-width="2" stroke-linecap="round" stroke-linejoin="round"/>
</svg>
