<svg width="73" height="72" viewBox="0 0 73 72" fill="none" xmlns="http://www.w3.org/2000/svg">
<path d="M68.1584 67.74C68.3601 68.0141 68.4754 68.3421 68.4895 68.6821C68.5037 69.0221 68.4161 69.3586 68.238 69.6486C68.0598 69.9385 67.7992 70.1687 67.4895 70.3097C67.1798 70.4507 66.8351 70.496 66.4994 70.44H6.49941C6.16377 70.496 5.81904 70.4507 5.50933 70.3097C5.19962 70.1687 4.93901 69.9385 4.76087 69.6486C4.58272 69.3586 4.49513 69.0221 4.5093 68.6821C4.52347 68.3421 4.63876 68.0141 4.84041 67.74L35.1584 7.107C35.8964 5.631 37.1024 5.631 37.8404 7.107L68.1584 67.74Z" fill="#FF5F57"/>
<path d="M6.50073 70.425H11.0007L35.1597 22.107C35.8977 20.631 37.1037 20.631 37.8417 22.107L62.0007 70.425H66.5007C66.8364 70.481 67.1811 70.4357 67.4908 70.2947C67.8005 70.1537 68.0611 69.9235 68.2393 69.6336C68.4174 69.3436 68.505 69.0071 68.4908 68.6671C68.4767 68.3271 68.3614 67.9991 68.1597 67.725L37.8417 7.107C37.1037 5.631 35.8977 5.631 35.1597 7.107L4.84173 67.74C4.64512 68.0142 4.53405 68.3405 4.52249 68.6777C4.51093 69.015 4.5994 69.3481 4.77677 69.6352C4.95414 69.9222 5.21247 70.1504 5.51924 70.2909C5.82601 70.4315 6.1675 70.4781 6.50073 70.425Z" fill="#DFF9FF"/>
<path d="M68.1584 67.74C68.3601 68.0141 68.4754 68.3421 68.4895 68.6821C68.5037 69.0221 68.4161 69.3586 68.238 69.6486C68.0598 69.9385 67.7992 70.1687 67.4895 70.3097C67.1798 70.4507 66.8351 70.496 66.4994 70.44H6.49941C6.16377 70.496 5.81904 70.4507 5.50933 70.3097C5.19962 70.1687 4.93901 69.9385 4.76087 69.6486C4.58272 69.3586 4.49513 69.0221 4.5093 68.6821C4.52347 68.3421 4.63876 68.0141 4.84041 67.74L35.1584 7.107C35.8964 5.631 37.1024 5.631 37.8404 7.107L68.1584 67.74Z" stroke="#00303E" stroke-width="2" stroke-linecap="round" stroke-linejoin="round"/>
<path d="M36.5 50.9336V29.9336" stroke="#00303E" stroke-width="2" stroke-linecap="round" stroke-linejoin="round"/>
<path d="M36.4735 56.9375C36.3757 56.939 36.2791 56.9601 36.1896 56.9994C36.1 57.0387 36.0192 57.0955 35.9518 57.1665C35.8845 57.2375 35.832 57.3212 35.7974 57.4127C35.7628 57.5042 35.7469 57.6017 35.7505 57.6995C35.7582 57.8966 35.8418 58.0831 35.9838 58.2201C36.1258 58.3571 36.3152 58.4339 36.5125 58.4345H36.5275C36.6256 58.433 36.7224 58.4118 36.8122 58.3723C36.9019 58.3328 36.9829 58.2757 37.0503 58.2044C37.1177 58.1331 37.1701 58.0491 37.2045 57.9572C37.2389 57.8653 37.2545 57.7675 37.2505 57.6695C37.2428 57.4747 37.1608 57.2903 37.0213 57.1541C36.8818 57.0179 36.6954 56.9404 36.5005 56.9375H36.4855" stroke="#00303E" stroke-width="2" stroke-linecap="round" stroke-linejoin="round"/>
</svg>
