<svg width="48" height="48" viewBox="0 0 48 48" fill="none" xmlns="http://www.w3.org/2000/svg">
<rect width="48" height="48" rx="24" fill="#FFEBEB"/>
<mask id="mask0_2622_15306" style="mask-type:alpha" maskUnits="userSpaceOnUse" x="12" y="12" width="24" height="24">
<rect x="12" y="12" width="24" height="24" fill="#D9D9D9"/>
</mask>
<g mask="url(#mask0_2622_15306)">
<path d="M24.0002 34.2334C22.0502 34.2334 20.2795 33.7506 18.6882 32.7848C17.0962 31.8191 15.8502 30.5287 14.9502 28.9136V31.1364C14.9502 31.3529 14.8795 31.5321 14.7382 31.6739C14.5962 31.8151 14.4169 31.8857 14.2002 31.8857C13.9835 31.8857 13.8045 31.8151 13.6632 31.6739C13.5212 31.5321 13.4502 31.3529 13.4502 31.1364V27.2902C13.4502 27.0404 13.5379 26.828 13.7132 26.6528C13.8879 26.4783 14.1002 26.3911 14.3502 26.3911H18.2002C18.4169 26.3911 18.5962 26.462 18.7382 26.6039C18.8795 26.7451 18.9502 26.9239 18.9502 27.1403C18.9502 27.3568 18.8795 27.536 18.7382 27.6778C18.5962 27.819 18.4169 27.8896 18.2002 27.8896H16.1002C16.8335 29.3548 17.9085 30.5287 19.3252 31.4112C20.7419 32.2936 22.3002 32.7349 24.0002 32.7349C26.3169 32.7349 28.3212 31.9773 30.0132 30.4621C31.7045 28.9469 32.6835 27.0404 32.9502 24.7427C32.9835 24.5262 33.0709 24.3471 33.2122 24.2052C33.3542 24.064 33.5335 23.9934 33.7502 23.9934C33.9502 23.9934 34.1252 24.0683 34.2752 24.2182C34.4252 24.3681 34.4835 24.5429 34.4502 24.7427C34.3335 26.0747 33.9752 27.3195 33.3752 28.477C32.7752 29.6339 32.0085 30.6369 31.0752 31.4861C30.1419 32.3353 29.0712 33.0053 27.8632 33.4961C26.6545 33.9877 25.3669 34.2334 24.0002 34.2334ZM14.2502 23.4939C14.0502 23.4939 13.8752 23.419 13.7252 23.2691C13.5752 23.1193 13.5169 22.9444 13.5502 22.7446C13.6835 21.3793 14.0502 20.1179 14.6502 18.9603C15.2502 17.8035 16.0169 16.8004 16.9502 15.9513C17.8835 15.1021 18.9545 14.4401 20.1632 13.9652C21.3712 13.491 22.6502 13.2539 24.0002 13.2539C25.9335 13.2539 27.7042 13.7368 29.3122 14.7025C30.9209 15.6682 32.1669 16.9753 33.0502 18.6237V16.3509C33.0502 16.1344 33.1212 15.9553 33.2632 15.8134C33.4045 15.6722 33.5835 15.6016 33.8002 15.6016C34.0169 15.6016 34.1959 15.6722 34.3372 15.8134C34.4792 15.9553 34.5502 16.1344 34.5502 16.3509V20.1971C34.5502 20.4469 34.4629 20.659 34.2882 20.8335C34.1129 21.0087 33.9002 21.0962 33.6502 21.0962H29.8002C29.5835 21.0962 29.4045 21.0253 29.2632 20.8835C29.1212 20.7423 29.0502 20.5634 29.0502 20.347C29.0502 20.1305 29.1212 19.9514 29.2632 19.8095C29.4045 19.6683 29.5835 19.5977 29.8002 19.5977H31.9002C31.1835 18.1658 30.1169 17.0002 28.7002 16.1011C27.2835 15.202 25.7169 14.7524 24.0002 14.7524C21.7169 14.7524 19.7212 15.5017 18.0132 17.0002C16.3045 18.4988 15.3169 20.4136 15.0502 22.7446C15.0169 22.9611 14.9295 23.1399 14.7882 23.2811C14.6462 23.423 14.4669 23.4939 14.2502 23.4939ZM23.9752 30.537C23.7919 30.537 23.6335 30.4704 23.5002 30.3372C23.3669 30.204 23.3002 30.0458 23.3002 29.8627V29.2882C22.6669 29.155 22.1252 28.9219 21.6752 28.5889C21.2252 28.2559 20.8669 27.8064 20.6002 27.2402C20.5169 27.0737 20.5169 26.8989 20.6002 26.7158C20.6835 26.5326 20.8085 26.4077 20.9752 26.3411C21.1419 26.2745 21.3129 26.2745 21.4882 26.3411C21.6629 26.4077 21.8002 26.5243 21.9002 26.6908C22.1502 27.1403 22.4712 27.486 22.8632 27.7278C23.2545 27.9689 23.6835 28.0894 24.1502 28.0894C24.7169 28.0894 25.2252 27.9479 25.6752 27.6648C26.1252 27.3818 26.3502 26.9239 26.3502 26.2912C26.3502 25.775 26.1585 25.3627 25.7752 25.0544C25.3919 24.7467 24.6669 24.393 23.6002 23.9934C22.5669 23.6271 21.8252 23.2148 21.3752 22.7566C20.9252 22.2991 20.7002 21.6957 20.7002 20.9464C20.7002 20.297 20.9295 19.7099 21.3882 19.1851C21.8462 18.661 22.5002 18.3156 23.3502 18.1491V17.6246C23.3502 17.4415 23.4169 17.2833 23.5502 17.1501C23.6835 17.0169 23.8419 16.9503 24.0252 16.9503C24.2085 16.9503 24.3669 17.0169 24.5002 17.1501C24.6335 17.2833 24.7002 17.4415 24.7002 17.6246V18.1491C25.1502 18.1824 25.5712 18.324 25.9632 18.5737C26.3545 18.8235 26.6835 19.1398 26.9502 19.5228C27.0669 19.6726 27.0875 19.8431 27.0122 20.0343C26.9375 20.2261 26.8085 20.3553 26.6252 20.4219C26.4752 20.4885 26.3212 20.4928 26.1632 20.4349C26.0045 20.3763 25.8585 20.2721 25.7252 20.1222C25.5419 19.8891 25.3085 19.7016 25.0252 19.5597C24.7419 19.4186 24.4169 19.348 24.0502 19.348C23.4335 19.348 22.9462 19.4978 22.5882 19.7975C22.2295 20.0972 22.0502 20.4802 22.0502 20.9464C22.0502 21.4126 22.2252 21.7789 22.5752 22.0453C22.9252 22.3117 23.6252 22.6198 24.6752 22.9694C25.8752 23.4023 26.6795 23.8895 27.0882 24.431C27.4962 24.9718 27.7002 25.5919 27.7002 26.2912C27.7002 27.2569 27.3879 27.9812 26.7632 28.4641C26.1379 28.9469 25.4335 29.2383 24.6502 29.3382V29.8627C24.6502 30.0458 24.5835 30.204 24.4502 30.3372C24.3169 30.4704 24.1585 30.537 23.9752 30.537Z" fill="#1C1B1F"/>
</g>
</svg>
