<svg width="29" height="36" viewBox="0 0 29 36" fill="none" xmlns="http://www.w3.org/2000/svg">
<path d="M13.5 29.55H15.5V20.15L19.7 24.35L21.1 22.9L14.5 16.3L7.9 22.9L9.3 24.35L13.5 20.15V29.55ZM3.75 36C2.81667 36 2.042 35.692 1.426 35.076C0.808666 34.4587 0.5 33.6833 0.5 32.75V3.25C0.5 2.31667 0.808666 1.54133 1.426 0.924C2.042 0.308 2.81667 0 3.75 0H19.5L28.5 9V32.75C28.5 33.6833 28.192 34.4587 27.576 35.076C26.9587 35.692 26.1833 36 25.25 36H3.75ZM18.5 10V2H3.75C3.41667 2 3.12533 2.12533 2.876 2.376C2.62533 2.62533 2.5 2.91667 2.5 3.25V32.75C2.5 33.0833 2.62533 33.3747 2.876 33.624C3.12533 33.8747 3.41667 34 3.75 34H25.25C25.5833 34 25.8747 33.8747 26.124 33.624C26.3747 33.3747 26.5 33.0833 26.5 32.75V10H18.5Z" fill="#555555"/>
</svg>
