<svg width="65" height="63" viewBox="0 0 65 63" fill="none" xmlns="http://www.w3.org/2000/svg">
<path d="M22.5 62.3594L16.9531 52.9062L6.40625 50.6406L7.42188 39.7031L0.234375 31.5L7.42188 23.2969L6.40625 12.3594L16.9531 10.0938L22.5 0.640625L32.5 4.9375L42.5 0.640625L48.0469 10.0938L58.5938 12.3594L57.5781 23.2969L64.7656 31.5L57.5781 39.7031L58.5938 50.6406L48.0469 52.9062L42.5 62.3594L32.5 58.0625L22.5 62.3594ZM24.5312 56.3438L32.5 52.9844L40.5469 56.3438L45 48.8437L53.5938 46.8906L52.8125 38.0625L58.5938 31.5L52.8125 24.8594L53.5938 16.0313L45 14.1562L40.4688 6.65625L32.5 10.0156L24.4531 6.65625L20 14.1562L11.4063 16.0313L12.1875 24.8594L6.40625 31.5L12.1875 38.0625L11.4063 46.9688L20 48.8437L24.5312 56.3438ZM29.2188 41.5L45.7813 24.9375L42.5 21.5781L29.2188 34.8594L22.5 28.2188L19.2188 31.5L29.2188 41.5Z" fill="#80B539"/>
</svg>
