<svg width="56" height="56" viewBox="0 0 56 56" fill="none" xmlns="http://www.w3.org/2000/svg">
<rect x="4" y="4" width="48" height="48" rx="24" fill="#D1FADF"/>
<mask id="mask0_2655_17779" style="mask-type:alpha" maskUnits="userSpaceOnUse" x="16" y="16" width="24" height="24">
<rect x="16" y="16" width="24" height="24" fill="#D9D9D9"/>
</mask>
<g mask="url(#mask0_2655_17779)">
<path d="M21.2 37.625C20.6833 37.625 20.25 37.45 19.9 37.1C19.55 36.75 19.375 36.3167 19.375 35.8V31.925L22.375 28.55L23.425 29.625L21 32.375H35L32.625 29.675L33.675 28.6L36.625 31.925V35.8C36.625 36.3167 36.45 36.75 36.1 37.1C35.75 37.45 35.3167 37.625 34.8 37.625H21.2ZM21.2 36.125H34.8C34.8833 36.125 34.9583 36.0917 35.025 36.025C35.0917 35.9583 35.125 35.8833 35.125 35.8V33.875H20.875V35.8C20.875 35.8833 20.9083 35.9583 20.975 36.025C21.0417 36.0917 21.1167 36.125 21.2 36.125ZM26.75 30.15L23.5 26.875C23.15 26.525 22.9793 26.1 22.988 25.6C22.996 25.1 23.175 24.675 23.525 24.325L28.175 19.675C28.525 19.325 28.95 19.1457 29.45 19.137C29.95 19.129 30.375 19.3 30.725 19.65L34 22.9C34.35 23.25 34.5293 23.6707 34.538 24.162C34.546 24.654 34.375 25.0833 34.025 25.45L29.3 30.15C28.95 30.5 28.525 30.675 28.025 30.675C27.525 30.675 27.1 30.5 26.75 30.15ZM32.925 24.4C32.975 24.35 33 24.2793 33 24.188C33 24.096 32.975 24.025 32.925 23.975L29.675 20.725C29.625 20.675 29.5543 20.65 29.463 20.65C29.371 20.65 29.3 20.675 29.25 20.725L24.575 25.4C24.525 25.45 24.5 25.521 24.5 25.613C24.5 25.7043 24.525 25.775 24.575 25.825L27.825 29.075C27.875 29.125 27.946 29.15 28.038 29.15C28.1293 29.15 28.2 29.125 28.25 29.075L32.925 24.4Z" fill="#1C1B1F"/>
</g>
<rect x="4" y="4" width="48" height="48" rx="24" stroke="#ECFDF3" stroke-width="8"/>
</svg>
