<svg width="56" height="56" viewBox="0 0 56 56" fill="none" xmlns="http://www.w3.org/2000/svg">
<rect x="4" y="4" width="48" height="48" rx="24" fill="#F2F4F7"/>
<mask id="mask0_2655_17796" style="mask-type:alpha" maskUnits="userSpaceOnUse" x="16" y="16" width="25" height="25">
<rect x="16.2168" y="16.1914" width="24" height="24" fill="#D9D9D9"/>
</mask>
<g mask="url(#mask0_2655_17796)">
<path d="M27.5168 34.9914H28.8668V33.7914C29.6501 33.6914 30.3545 33.3997 30.9798 32.9164C31.6045 32.4331 31.9168 31.7081 31.9168 30.7414C31.9168 30.0414 31.7128 29.4207 31.3048 28.8794C30.8961 28.3374 30.0918 27.8497 28.8918 27.4164C27.8418 27.0664 27.1418 26.7581 26.7918 26.4914C26.4418 26.2247 26.2668 25.8581 26.2668 25.3914C26.2668 24.9247 26.4461 24.5414 26.8048 24.2414C27.1628 23.9414 27.6501 23.7914 28.2668 23.7914C28.7835 23.7914 29.2041 23.9164 29.5288 24.1664C29.8541 24.4164 30.1001 24.7247 30.2668 25.0914L31.4918 24.5914C31.2918 24.0581 30.9545 23.6037 30.4798 23.2284C30.0045 22.8537 29.4835 22.6414 28.9168 22.5914V21.3914H27.5668V22.5914C26.7168 22.7581 26.0628 23.1037 25.6048 23.6284C25.1461 24.1537 24.9168 24.7414 24.9168 25.3914C24.9168 26.1414 25.1418 26.7454 25.5918 27.2034C26.0418 27.6621 26.7835 28.0747 27.8168 28.4414C28.8835 28.8414 29.6085 29.1954 29.9918 29.5034C30.3751 29.8121 30.5668 30.2247 30.5668 30.7414C30.5668 31.3747 30.3418 31.8331 29.8918 32.1164C29.4418 32.3997 28.9335 32.5414 28.3668 32.5414C27.8001 32.5414 27.2961 32.3707 26.8548 32.0294C26.4128 31.6874 26.0751 31.1914 25.8418 30.5414L24.5668 31.0664C24.8335 31.7997 25.2085 32.3871 25.6918 32.8284C26.1751 33.2704 26.7835 33.5747 27.5168 33.7414V34.9914ZM28.2168 37.6914C26.9001 37.6914 25.6668 37.4414 24.5168 36.9414C23.3668 36.4414 22.3625 35.7621 21.5038 34.9034C20.6458 34.0454 19.9668 33.0414 19.4668 31.8914C18.9668 30.7414 18.7168 29.5081 18.7168 28.1914C18.7168 26.8747 18.9668 25.6414 19.4668 24.4914C19.9668 23.3414 20.6458 22.3371 21.5038 21.4784C22.3625 20.6204 23.3668 19.9414 24.5168 19.4414C25.6668 18.9414 26.9001 18.6914 28.2168 18.6914C29.5335 18.6914 30.7668 18.9414 31.9168 19.4414C33.0668 19.9414 34.0708 20.6204 34.9288 21.4784C35.7875 22.3371 36.4668 23.3414 36.9668 24.4914C37.4668 25.6414 37.7168 26.8747 37.7168 28.1914C37.7168 29.5081 37.4668 30.7414 36.9668 31.8914C36.4668 33.0414 35.7875 34.0454 34.9288 34.9034C34.0708 35.7621 33.0668 36.4414 31.9168 36.9414C30.7668 37.4414 29.5335 37.6914 28.2168 37.6914ZM28.2168 36.1914C30.4501 36.1914 32.3418 35.4164 33.8918 33.8664C35.4418 32.3164 36.2168 30.4247 36.2168 28.1914C36.2168 25.9581 35.4418 24.0664 33.8918 22.5164C32.3418 20.9664 30.4501 20.1914 28.2168 20.1914C25.9835 20.1914 24.0918 20.9664 22.5418 22.5164C20.9918 24.0664 20.2168 25.9581 20.2168 28.1914C20.2168 30.4247 20.9918 32.3164 22.5418 33.8664C24.0918 35.4164 25.9835 36.1914 28.2168 36.1914Z" fill="#1C1B1F"/>
</g>
<rect x="4" y="4" width="48" height="48" rx="24" stroke="#F9FAFB" stroke-width="8"/>
</svg>
