<svg width="65" height="56" viewBox="0 0 65 56" fill="none" xmlns="http://www.w3.org/2000/svg">
<path d="M0.859375 55.0625L32.5 0.375L64.1406 55.0625H0.859375ZM8.90625 50.375H56.0937L32.5 9.75L8.90625 50.375ZM32.5 46.625C33.2292 46.625 33.8281 46.3906 34.2969 45.9219C34.7656 45.4531 35 44.8542 35 44.125C35 43.3958 34.7656 42.7969 34.2969 42.3281C33.8281 41.8594 33.2292 41.625 32.5 41.625C31.7708 41.625 31.1719 41.8594 30.7031 42.3281C30.2344 42.7969 30 43.3958 30 44.125C30 44.8542 30.2344 45.4531 30.7031 45.9219C31.1719 46.3906 31.7708 46.625 32.5 46.625ZM30.1562 38.5H34.8438V22.875H30.1562V38.5Z" fill="#FF5C5C"/>
</svg>
